<svg xmlns="http://www.w3.org/2000/svg" width="23.82mm" height="15.65mm" viewBox="0 0 67.51 44.38"><path d="M55.51,7.7c-2.4-.7-3.83-.86-3.83-2.2,0-.91.86-1.6,2.35-1.6a16.68,16.68,0,0,1,4.86,1.38l1.58-3.65A13.77,13.77,0,0,0,54.2,0c-4.66,0-7.65,2.54-7.65,5.9,0,2.91,1.9,4.22,6,5.29,2.29.6,3.68,1.07,3.68,2.57a2.13,2.13,0,0,1-2.37,1.91,15,15,0,0,1-6.23-1.82L45.9,17.42a12.42,12.42,0,0,0,7.23,2.21c5,0,8.2-2.65,8.2-6.27C61.33,10.56,59.43,8.86,55.51,7.7Z" fill="#004380"/><path d="M12,.36H7.38V19.08h4.76L12.12,8s3.72,6.42,7,11.12h4V.36H18.45v9.75A109.8,109.8,0,0,0,12,.36Z" fill="#004380"/><path d="M38.45,19V11H31.38V19H26.62V.36h4.76V7.47h7.07V.36H43.2V19Z" fill="#004380"/><path d="M33.82,30.48c-1.55-2.78-6.83-7.37-16.2-5.86A42.2,42.2,0,0,1,10.7,25c-7.47-.57-8.77-4.69-8.84-4.91H0s1,8,9.19,9.36a36,36,0,0,0,8.86-.5c6.61-1.08,11.68-1.26,15.78,4.42,0,0,.05.06.1.06a.1.1,0,0,0,.1-.06A3.67,3.67,0,0,0,33.82,30.48Z" fill="#0096dc"/><path d="M65.64,20.09c-.07.22-1.45,4.32-8.91,4.89a42.26,42.26,0,0,1-6.93-.38c-9.29-1.5-13.22,3.08-14.36,5.57a5.21,5.21,0,0,0-.34,3.2.12.12,0,0,0,.1.06s.09-.06.09-.06c4.11-5.68,7.47-5.52,14.09-4.44,2.69.44,6.86.84,8.86.5,8.16-1.35,9.27-9.34,9.27-9.34Z" fill="#0096dc"/><path d="M6.57,43.93a7,7,0,0,1-2.26.4,3.75,3.75,0,0,1-2.74-1,3.76,3.76,0,0,1-1-2.73,3.67,3.67,0,0,1,4-3.78,4.63,4.63,0,0,1,1.83.33L6.12,38a3.69,3.69,0,0,0-1.62-.32,2.74,2.74,0,0,0-2.95,3,2.69,2.69,0,0,0,2.83,3,3,3,0,0,0,1.26-.2V41.17H4.15V40.4H6.57Z" fill="#234c7b"/><path d="M12.77,41.58a2.58,2.58,0,0,1-2.62,2.8,2.51,2.51,0,0,1-2.53-2.71,2.57,2.57,0,0,1,2.61-2.8A2.49,2.49,0,0,1,12.77,41.58Zm-4.18.05c0,1.16.67,2,1.6,2s1.6-.86,1.6-2c0-.89-.45-2-1.58-2S8.59,40.63,8.59,41.63Z" fill="#234c7b"/><path d="M14,36.53h1v7.73H14Z" fill="#234c7b"/><path d="M21,36.53V42.9c0,.46,0,1,0,1.36h-.86l0-.92h0a2,2,0,0,1-1.8,1A2.4,2.4,0,0,1,16.1,41.7a2.52,2.52,0,0,1,2.36-2.83,1.75,1.75,0,0,1,1.59.81h0V36.53Zm-1,4.6a1.81,1.81,0,0,0,0-.4,1.41,1.41,0,0,0-1.38-1.11c-1,0-1.58.87-1.58,2s.52,1.94,1.55,1.94A1.44,1.44,0,0,0,20,42.46a1.78,1.78,0,0,0,0-.41Z" fill="#234c7b"/><path d="M23.12,41.8a1.69,1.69,0,0,0,1.81,1.83,3.31,3.31,0,0,0,1.45-.28l.17.69a4.38,4.38,0,0,1-1.76.32,2.43,2.43,0,0,1-2.58-2.65,2.55,2.55,0,0,1,2.47-2.84,2.23,2.23,0,0,1,2.17,2.48,4,4,0,0,1,0,.45Zm2.81-.69a1.36,1.36,0,0,0-1.33-1.55,1.59,1.59,0,0,0-1.47,1.55Z" fill="#234c7b"/><path d="M28,40.42c0-.55,0-1-.05-1.43h.85l.06.87h0a1.94,1.94,0,0,1,1.74-1c.73,0,1.86.44,1.86,2.24v3.15h-1v-3c0-.85-.31-1.56-1.22-1.56a1.36,1.36,0,0,0-1.28,1,1.25,1.25,0,0,0-.07.45v3.17H28Z" fill="#234c7b"/><path d="M37.82,36.92h1v4.91c0,2-1,2.55-2.22,2.55a3,3,0,0,1-1-.18l.14-.77a2.15,2.15,0,0,0,.79.14c.85,0,1.35-.38,1.35-1.82Z" fill="#234c7b"/><path d="M44.69,42.82c0,.54,0,1,0,1.44h-.85l-.05-.86h0a2,2,0,0,1-1.75,1c-.82,0-1.81-.46-1.81-2.31V39h1v2.92c0,1,.3,1.67,1.17,1.67a1.37,1.37,0,0,0,1.26-.87,1.26,1.26,0,0,0,.09-.49V39h1Z" fill="#234c7b"/><path d="M46.2,44.26c0-.36,0-.9,0-1.36V36.53h.95v3.31h0a2,2,0,0,1,1.8-1c1.3,0,2.23,1.09,2.22,2.69,0,1.88-1.19,2.82-2.36,2.82a1.89,1.89,0,0,1-1.77-1h0l0,.87Zm1-2.11a2,2,0,0,0,0,.34,1.48,1.48,0,0,0,1.44,1.12c1,0,1.6-.81,1.6-2s-.54-2-1.57-2a1.54,1.54,0,0,0-1.46,1.18,2.06,2.06,0,0,0-.05.39Z" fill="#234c7b"/><path d="M53.47,37.51a.6.6,0,0,1-1.19,0,.58.58,0,0,1,.6-.6A.57.57,0,0,1,53.47,37.51ZM52.4,44.26V39h1v5.27Z" fill="#234c7b"/><path d="M54.92,36.53h.95v7.73h-.95Z" fill="#234c7b"/><path d="M58,41.8a1.68,1.68,0,0,0,1.8,1.83,3.33,3.33,0,0,0,1.46-.28l.16.69a4.28,4.28,0,0,1-1.75.32,2.44,2.44,0,0,1-2.59-2.65,2.56,2.56,0,0,1,2.47-2.84,2.23,2.23,0,0,1,2.18,2.48,4,4,0,0,1,0,.45Zm2.8-.69a1.36,1.36,0,0,0-1.32-1.55A1.58,1.58,0,0,0,58,41.11Z" fill="#234c7b"/><path d="M63.4,41.8a1.7,1.7,0,0,0,1.81,1.83,3.33,3.33,0,0,0,1.46-.28l.16.69a4.32,4.32,0,0,1-1.75.32,2.44,2.44,0,0,1-2.59-2.65A2.56,2.56,0,0,1,65,38.87a2.23,2.23,0,0,1,2.18,2.48,2.31,2.31,0,0,1,0,.45Zm2.81-.69a1.36,1.36,0,0,0-1.33-1.55,1.58,1.58,0,0,0-1.46,1.55Z" fill="#234c7b"/></svg>