<svg xmlns="http://www.w3.org/2000/svg" width="196.6mm" height="29.03mm" viewBox="0 0 557.3 82.29"><path d="M6.83,44.85h4.51V46H8.16v1.92h2.7V49H8.16v2.22h3.3v1.12H6.83Z" fill="#004380"/><path d="M14.91,46.58a2.09,2.09,0,0,1,1.48.62l-.05-.91v-2h1.32v8.11H16.57l-.09-.61h0a2.34,2.34,0,0,1-1.6.75c-1.42,0-2.32-1.09-2.32-3S13.68,46.58,14.91,46.58Zm.25,4.83a1.53,1.53,0,0,0,1.18-.63V48.14a1.7,1.7,0,0,0-1.15-.47c-.72,0-1.31.68-1.31,1.87S14.34,51.41,15.16,51.41Z" fill="#004380"/><path d="M19.28,46.72h1.33v3.37c0,.93.26,1.27.87,1.27a1.51,1.51,0,0,0,1.25-.78V46.72h1.32v5.64H23l-.1-.83h0a2.31,2.31,0,0,1-1.82,1c-1.21,0-1.74-.82-1.74-2.24Z" fill="#004380"/><path d="M28.19,46.58a2.34,2.34,0,0,1,1.66.66l-.64.84a1.38,1.38,0,0,0-.95-.42c-.91,0-1.54.75-1.54,1.89s.62,1.87,1.5,1.87a1.9,1.9,0,0,0,1.17-.48l.55.84a2.84,2.84,0,0,1-1.85.72,2.69,2.69,0,0,1-2.73-3A2.79,2.79,0,0,1,28.19,46.58Z" fill="#004380"/><path d="M32.84,46.58a2,2,0,0,1,1.53.69h0l.1-.55h1.06v5.64H34.48l-.1-.61h0a2.34,2.34,0,0,1-1.6.75c-1.41,0-2.32-1.09-2.32-3S31.6,46.58,32.84,46.58Zm.22,4.83a1.55,1.55,0,0,0,1.19-.63V48.14a1.7,1.7,0,0,0-1.15-.47c-.73,0-1.31.68-1.31,1.87S32.25,51.41,33.06,51.41Z" fill="#004380"/><path d="M37.44,47.77h-.8v-1l.87-.06.16-1.54h1.1v1.54h1.44v1.05H38.77v2.68c0,.67.26,1,.8,1a1.58,1.58,0,0,0,.58-.12l.23,1a3.42,3.42,0,0,1-1.15.21c-1.31,0-1.79-.83-1.79-2Z" fill="#004380"/><path d="M41.24,45a.82.82,0,1,1,.82.75A.76.76,0,0,1,41.24,45Zm.15,1.74h1.32v5.64H41.39Z" fill="#004380"/><path d="M46.71,46.58a3,3,0,1,1-2.67,3A2.73,2.73,0,0,1,46.71,46.58Zm0,4.84c.83,0,1.34-.75,1.34-1.87s-.51-1.89-1.34-1.89-1.32.75-1.32,1.89S45.89,51.42,46.71,51.42Z" fill="#004380"/><path d="M50.71,46.72H51.8l.1.76h0a2.61,2.61,0,0,1,1.85-.9c1.21,0,1.74.82,1.74,2.24v3.54H54.21V49c0-.94-.27-1.28-.89-1.28a1.8,1.8,0,0,0-1.29.7v3.94H50.71Z" fill="#004380"/><path d="M10,71.17A3,3,0,0,0,12,72c.84,0,1.31-.38,1.31-1s-.48-.81-1.17-1.1l-1-.45a2.15,2.15,0,0,1-1.52-2,2.28,2.28,0,0,1,2.52-2.11,3.32,3.32,0,0,1,2.32,1l-.69.85a2.43,2.43,0,0,0-1.63-.64c-.72,0-1.18.33-1.18.88s.58.81,1.2,1.06l1,.42a2.1,2.1,0,0,1,1.52,2c0,1.22-1,2.23-2.7,2.23a3.87,3.87,0,0,1-2.7-1.11Z" fill="#004380"/><path d="M18.36,67.26a2.35,2.35,0,0,1,1.65.65l-.63.84a1.43,1.43,0,0,0-.95-.41c-.91,0-1.54.75-1.54,1.88s.62,1.88,1.5,1.88a1.83,1.83,0,0,0,1.16-.49l.55.84a2.81,2.81,0,0,1-1.85.73,2.68,2.68,0,0,1-2.72-3A2.78,2.78,0,0,1,18.36,67.26Z" fill="#004380"/><path d="M23.24,67.26a3,3,0,1,1-2.68,3A2.73,2.73,0,0,1,23.24,67.26Zm0,4.84c.83,0,1.33-.75,1.33-1.88s-.5-1.88-1.33-1.88-1.32.75-1.32,1.88S22.41,72.1,23.24,72.1Z" fill="#004380"/><path d="M27.44,68.44h-.81v-1l.87,0,.17-1.54h1.1V67.4H30.2v1H28.77v2.69c0,.67.25,1,.79,1a1.59,1.59,0,0,0,.59-.13l.23,1a3.69,3.69,0,0,1-1.15.21c-1.31,0-1.79-.83-1.79-2.05Z" fill="#004380"/><path d="M31.39,64.93h1.32v6.73c0,.32.15.44.29.44a.59.59,0,0,0,.2,0l.18,1a1.78,1.78,0,0,1-.71.12c-.94,0-1.28-.61-1.28-1.59Z" fill="#004380"/><path d="M36.58,67.26a2,2,0,0,1,1.53.69h0l.11-.55h1.06V73h-1.1l-.09-.61h0a2.39,2.39,0,0,1-1.6.75c-1.42,0-2.32-1.09-2.32-3S35.34,67.26,36.58,67.26Zm.22,4.83A1.51,1.51,0,0,0,38,71.45V68.82a1.7,1.7,0,0,0-1.15-.47c-.72,0-1.31.68-1.31,1.86S36,72.09,36.8,72.09Z" fill="#004380"/><path d="M41,67.4h1.09l.1.76h0a2.61,2.61,0,0,1,1.85-.9c1.21,0,1.74.81,1.74,2.24V73H44.48V69.67c0-.93-.27-1.27-.89-1.27a1.81,1.81,0,0,0-1.29.7V73H41Z" fill="#004380"/><path d="M49.46,67.26a2.09,2.09,0,0,1,1.49.62L50.9,67v-2h1.32V73H51.13L51,72.43h0a2.37,2.37,0,0,1-1.6.75c-1.41,0-2.32-1.09-2.32-3S48.23,67.26,49.46,67.26Zm.26,4.83a1.53,1.53,0,0,0,1.18-.64V68.82a1.7,1.7,0,0,0-1.15-.47c-.72,0-1.31.68-1.31,1.86S48.9,72.09,49.72,72.09Z" fill="#004380"/><path d="M50.58,18.79c-2.19-.65-3.49-.79-3.49-2,0-.83.78-1.45,2.14-1.45a15.32,15.32,0,0,1,4.43,1.25l1.43-3.32a12.44,12.44,0,0,0-5.7-1.49c-4.25,0-7,2.31-7,5.37,0,2.65,1.73,3.84,5.44,4.82,2.08.55,3.35,1,3.35,2.34A2,2,0,0,1,49,26.05a13.62,13.62,0,0,1-5.68-1.67l-1.54,3.26a11.33,11.33,0,0,0,6.59,2c4.6,0,7.47-2.41,7.47-5.7C55.88,21.39,54.15,19.84,50.58,18.79Z" fill="#004380"/><path d="M10.91,12.09H6.73V29.15h4.34L11,19s3.39,5.85,6.41,10.13h3.61v-17H16.81V21A100.88,100.88,0,0,0,10.91,12.09Z" fill="#004380"/><path d="M35,29.12V21.77H28.59v7.35H24.25v-17h4.34v6.47H35V12.1h4.33v17Z" fill="#004380"/><path d="M30.82,39.54C29.4,37,24.6,32.82,16.06,34.2a39.69,39.69,0,0,1-6.31.35c-6.8-.52-8-4.28-8-4.48H0s.93,7.3,8.37,8.53a32.32,32.32,0,0,0,8.07-.45c6-1,10.64-1.15,14.38,4,0,0,.05.06.09.06a.1.1,0,0,0,.1-.06A3.35,3.35,0,0,0,30.82,39.54Z" fill="#0096dc"/><path d="M59.81,30.07c-.06.2-1.32,3.94-8.12,4.46a39.64,39.64,0,0,1-6.31-.35C36.91,32.82,33.33,37,32.29,39.26A4.76,4.76,0,0,0,32,42.17a.11.11,0,0,0,.09.06s.09-.06.09-.06c3.74-5.17,6.8-5,12.83-4a32.87,32.87,0,0,0,8.07.46c7.44-1.24,8.45-8.52,8.45-8.52Z" fill="#0096dc"/><path d="M28.54,55.59a1.55,1.55,0,0,0-.62-.14c-.46,0-.71.3-.71,1V57h1.1v1.05h-1.1v4.6H25.89v-4.6h-.76v-1l.76-.06v-.58c0-1.17.54-2,1.87-2a3,3,0,0,1,1,.19Z" fill="#004380"/><path d="M31.5,56.88a3,3,0,1,1-2.68,3A2.73,2.73,0,0,1,31.5,56.88Zm0,4.83c.82,0,1.33-.74,1.33-1.87S32.32,58,31.5,58s-1.33.74-1.33,1.88S30.67,61.71,31.5,61.71Z" fill="#004380"/><path d="M35.49,57h1.1l.09,1h0a1.93,1.93,0,0,1,1.6-1.13A1.42,1.42,0,0,1,39,57l-.23,1.15a1.72,1.72,0,0,0-.58-.09c-.45,0-1,.31-1.33,1.16v3.45H35.49Z" fill="#004380"/><path d="M107.75,37.1V14.8h2.92l8.06,14,2.42,4.62h.13c-.07-1.13-.14-2.3-.22-3.52s-.12-2.4-.12-3.58V14.8h2.69V37.1H120.7l-8.09-14-2.41-4.59h-.14c.09,1.14.18,2.29.26,3.45s.12,2.34.12,3.52V37.1Z" fill="#004380"/><path d="M129.75,37.1V14.8h2.82v9.35h10.37V14.8h2.86V37.1h-2.86V26.6H132.57V37.1Z" fill="#004380"/><path d="M158.1,37.51a10.67,10.67,0,0,1-4.35-.88,10.91,10.91,0,0,1-3.47-2.41l1.7-2a9.36,9.36,0,0,0,2.81,2,7.7,7.7,0,0,0,3.35.76,5.27,5.27,0,0,0,3.43-1,3.24,3.24,0,0,0,1.23-2.64,3.33,3.33,0,0,0-.29-1.44,3.18,3.18,0,0,0-.79-1,5.39,5.39,0,0,0-1.17-.77l-1.46-.71-3.2-1.4a13.27,13.27,0,0,1-1.59-.81,6.38,6.38,0,0,1-1.47-1.16,5.47,5.47,0,0,1-1.05-1.61A5.67,5.67,0,0,1,151.9,18a5.79,5.79,0,0,1,1.46-1.88,6.53,6.53,0,0,1,2.21-1.24,8.41,8.41,0,0,1,2.81-.45,8.91,8.91,0,0,1,3.7.77,9.24,9.24,0,0,1,2.89,2L163.44,19a8,8,0,0,0-2.26-1.54,6.64,6.64,0,0,0-2.8-.56,4.82,4.82,0,0,0-3,.86,2.85,2.85,0,0,0-1.14,2.4,2.71,2.71,0,0,0,.32,1.38,3.36,3.36,0,0,0,.87,1,6.85,6.85,0,0,0,1.19.75c.43.22.87.41,1.32.6l3.17,1.36a13.89,13.89,0,0,1,1.8.93,6.71,6.71,0,0,1,1.46,1.22,5.35,5.35,0,0,1,1,1.64,6.33,6.33,0,0,1-.17,4.64,6.05,6.05,0,0,1-1.51,2A7.3,7.3,0,0,1,161.27,37,9.46,9.46,0,0,1,158.1,37.51Z" fill="#004380"/><path d="M183.06,37.51a10.6,10.6,0,0,1-4.35-.88,10.8,10.8,0,0,1-3.47-2.41l1.7-2a9.32,9.32,0,0,0,2.8,2,7.77,7.77,0,0,0,3.35.76,5.28,5.28,0,0,0,3.44-1,3.26,3.26,0,0,0,1.22-2.64,3.33,3.33,0,0,0-.29-1.44,3,3,0,0,0-.78-1,5.65,5.65,0,0,0-1.17-.77L184,27.45l-3.19-1.4a13.38,13.38,0,0,1-1.6-.81,6.54,6.54,0,0,1-1.46-1.16,5.47,5.47,0,0,1-1-1.61,5.2,5.2,0,0,1-.41-2.16,5.35,5.35,0,0,1,.52-2.35,5.69,5.69,0,0,1,1.47-1.88,6.53,6.53,0,0,1,2.21-1.24,8.35,8.35,0,0,1,2.8-.45,9,9,0,0,1,3.71.77,9.35,9.35,0,0,1,2.89,2L188.4,19a8.09,8.09,0,0,0-2.26-1.54,6.68,6.68,0,0,0-2.81-.56,4.82,4.82,0,0,0-3,.86,2.85,2.85,0,0,0-1.14,2.4,2.71,2.71,0,0,0,.33,1.38,3.32,3.32,0,0,0,.86,1,7.25,7.25,0,0,0,1.19.75c.43.22.88.41,1.33.6l3.16,1.36a12.71,12.71,0,0,1,1.8.93,6.54,6.54,0,0,1,1.47,1.22,5.33,5.33,0,0,1,1,1.64,5.94,5.94,0,0,1,.36,2.15,5.8,5.8,0,0,1-.53,2.49,5.92,5.92,0,0,1-1.51,2A7.19,7.19,0,0,1,186.22,37,9.4,9.4,0,0,1,183.06,37.51Z" fill="#004380"/><path d="M201.28,37.51a8,8,0,0,1-3.06-.58,6.75,6.75,0,0,1-2.46-1.68,7.74,7.74,0,0,1-1.63-2.72,10.39,10.39,0,0,1-.6-3.65,9.84,9.84,0,0,1,.65-3.69,8.22,8.22,0,0,1,1.73-2.74,7.33,7.33,0,0,1,2.53-1.7,8.27,8.27,0,0,1,3.05-.58,6.24,6.24,0,0,1,2.78.58,9.74,9.74,0,0,1,2,1.36L204.89,24a7.3,7.3,0,0,0-1.52-1.06,3.86,3.86,0,0,0-1.78-.41,4.84,4.84,0,0,0-2.08.46,4.89,4.89,0,0,0-1.63,1.31,6.53,6.53,0,0,0-1.07,2,8.2,8.2,0,0,0-.39,2.6,8.33,8.33,0,0,0,.37,2.58,6.37,6.37,0,0,0,1,2,4.42,4.42,0,0,0,1.62,1.29,4.88,4.88,0,0,0,4.2,0,9.21,9.21,0,0,0,1.75-1.17l1.22,1.86A8.82,8.82,0,0,1,204.14,37,7.33,7.33,0,0,1,201.28,37.51Z" fill="#004380"/><path d="M216,37.51a7.38,7.38,0,0,1-2.91-.58,7.08,7.08,0,0,1-2.43-1.68A8.14,8.14,0,0,1,209,32.53a9.94,9.94,0,0,1-.63-3.65,10,10,0,0,1,.63-3.69,8.44,8.44,0,0,1,1.68-2.74,7.14,7.14,0,0,1,2.43-1.7,7.59,7.59,0,0,1,5.82,0,7,7,0,0,1,2.43,1.7A8.44,8.44,0,0,1,223,25.19a10,10,0,0,1,.63,3.69,9.94,9.94,0,0,1-.63,3.65,8.14,8.14,0,0,1-1.68,2.72,7,7,0,0,1-2.43,1.68A7.38,7.38,0,0,1,216,37.51Zm0-2.31a4.11,4.11,0,0,0,1.94-.46,4.32,4.32,0,0,0,1.51-1.29,6.26,6.26,0,0,0,1-2,9,9,0,0,0,.34-2.58,9.2,9.2,0,0,0-.34-2.6,6.38,6.38,0,0,0-1-2,4.49,4.49,0,0,0-1.51-1.31,4.32,4.32,0,0,0-3.88,0,4.49,4.49,0,0,0-1.51,1.31,6.38,6.38,0,0,0-1,2,9.2,9.2,0,0,0-.34,2.6,9,9,0,0,0,.34,2.58,6.26,6.26,0,0,0,1,2A4.32,4.32,0,0,0,214,34.74,4.11,4.11,0,0,0,216,35.2Z" fill="#004380"/><path d="M232.6,37.51a5.26,5.26,0,0,1-2.23-.41A3.74,3.74,0,0,1,228.91,36a4.26,4.26,0,0,1-.8-1.73,9.8,9.8,0,0,1-.24-2.24V22.86h-2.45V20.75l2.59-.17.34-4.62h2.34v4.62h4.46v2.28h-4.46V32a4.22,4.22,0,0,0,.56,2.36,2.22,2.22,0,0,0,2,.83,3.67,3.67,0,0,0,.95-.13,6.18,6.18,0,0,0,.92-.31l.55,2.11c-.46.16-.95.3-1.48.43A7.23,7.23,0,0,1,232.6,37.51Z" fill="#004380"/><path d="M241.84,37.51a2.58,2.58,0,0,1-2.27-.95,4.71,4.71,0,0,1-.68-2.79V12.9h2.78V34a1.45,1.45,0,0,0,.24,1,.71.71,0,0,0,.55.27h.25a1.29,1.29,0,0,0,.36-.07l.37,2.11a2.19,2.19,0,0,1-.64.2A5.1,5.1,0,0,1,241.84,37.51Z" fill="#004380"/><path d="M253.2,37.51a6.12,6.12,0,0,1-5-2.24,9.77,9.77,0,0,1-1.85-6.39,10.3,10.3,0,0,1,.59-3.62,8.46,8.46,0,0,1,1.6-2.74,7,7,0,0,1,2.29-1.73,6.29,6.29,0,0,1,2.72-.62,5.83,5.83,0,0,1,2.49.51,9.61,9.61,0,0,1,2.21,1.5h.06l.24-1.6h2.28V37.1h-2.31l-.24-1.93h-.1a10.86,10.86,0,0,1-2.26,1.65A5.69,5.69,0,0,1,253.2,37.51Zm.61-2.34a4.51,4.51,0,0,0,2.18-.56,8,8,0,0,0,2-1.72V24.25a7.16,7.16,0,0,0-2-1.34,5.21,5.21,0,0,0-2-.39,3.88,3.88,0,0,0-1.86.46,4.63,4.63,0,0,0-1.51,1.29,6.55,6.55,0,0,0-1,2,8.33,8.33,0,0,0-.37,2.58,7.85,7.85,0,0,0,1.19,4.66A3.88,3.88,0,0,0,253.81,35.17Z" fill="#004380"/><path d="M266.43,37.1V20.58h2.31L269,23h.1a13.57,13.57,0,0,1,2.5-2,5.72,5.72,0,0,1,3-.8,4.48,4.48,0,0,1,3.83,1.63,8.11,8.11,0,0,1,1.2,4.83V37.1h-2.79V27a6,6,0,0,0-.74-3.39,2.74,2.74,0,0,0-2.38-1,4,4,0,0,0-2.28.64,14.69,14.69,0,0,0-2.25,1.91v12Z" fill="#004380"/><path d="M290.67,37.51a6.12,6.12,0,0,1-5-2.24,9.77,9.77,0,0,1-1.86-6.39,10.29,10.29,0,0,1,.6-3.62A8.43,8.43,0,0,1,286,22.52a6.9,6.9,0,0,1,2.28-1.73,6.26,6.26,0,0,1,2.72-.62,5.63,5.63,0,0,1,2.48.51,11,11,0,0,1,2.14,1.4l-.14-2.82V12.9h2.83V37.1H296l-.24-1.93h-.1a11.13,11.13,0,0,1-2.26,1.65A5.72,5.72,0,0,1,290.67,37.51Zm.61-2.34a4.51,4.51,0,0,0,2.18-.56,7.78,7.78,0,0,0,2-1.72V24.25a7,7,0,0,0-2-1.34,5.26,5.26,0,0,0-2-.39,3.87,3.87,0,0,0-1.85.46,4.63,4.63,0,0,0-1.51,1.29,6.55,6.55,0,0,0-1,2,8.32,8.32,0,0,0-.38,2.58,7.93,7.93,0,0,0,1.19,4.66A3.91,3.91,0,0,0,291.28,35.17Z" fill="#004380"/><path d="M307.7,37.1l6.94-22.16h6l6.93,22.16h-5.3l-1.36-5.26h-6.77L312.8,37.1Zm8-11.21-.55,2h4.73l-.51-2c-.32-1.12-.63-2.29-.92-3.54s-.59-2.45-.88-3.6h-.14c-.27,1.17-.55,2.38-.83,3.62S316,24.77,315.73,25.89Z" fill="#004380"/><path d="M336.94,37.51a9,9,0,0,1-3.28-.59A7.55,7.55,0,0,1,331,35.2a7.94,7.94,0,0,1-1.77-2.77,10.25,10.25,0,0,1-.65-3.76,9.46,9.46,0,0,1,.71-3.75,8.2,8.2,0,0,1,1.93-2.78,8.34,8.34,0,0,1,2.8-1.71,9.43,9.43,0,0,1,3.33-.6,7.05,7.05,0,0,1,2.77.51,8.33,8.33,0,0,1,2.16,1.3L340,24.86a3.7,3.7,0,0,0-2.28-1,3.53,3.53,0,0,0-2.89,1.29,5.39,5.39,0,0,0-1.06,3.5,5.32,5.32,0,0,0,1.08,3.51,3.35,3.35,0,0,0,2.7,1.29,3.68,3.68,0,0,0,1.58-.36,8.57,8.57,0,0,0,1.45-.87l2,3.27a7.66,7.66,0,0,1-2.72,1.54A9.43,9.43,0,0,1,336.94,37.51Z" fill="#004380"/><path d="M350.54,37.51a6.46,6.46,0,0,1-2.84-.61,6.11,6.11,0,0,1-2.17-1.75,8.3,8.3,0,0,1-1.4-2.77,12.77,12.77,0,0,1-.49-3.71,10.4,10.4,0,0,1,.61-3.7,8.84,8.84,0,0,1,1.62-2.77,7.07,7.07,0,0,1,2.27-1.76,6.07,6.07,0,0,1,2.6-.61,5.43,5.43,0,0,1,2.35.5,6.41,6.41,0,0,1,2,1.58h.14l.4-1.67h3.91V37.1H355.5l-.34-1.66H355A8,8,0,0,1,353,36.92,5.46,5.46,0,0,1,350.54,37.51Zm1.29-4.08a3.13,3.13,0,0,0,1.48-.34,3.7,3.7,0,0,0,1.28-1.19V25a4,4,0,0,0-1.4-.85,4.33,4.33,0,0,0-1.39-.24,2.67,2.67,0,0,0-2.11,1.14,5.65,5.65,0,0,0-.92,3.55,6.63,6.63,0,0,0,.8,3.68A2.59,2.59,0,0,0,351.83,33.43Z" fill="#004380"/><path d="M370,37.51a6.46,6.46,0,0,1-2.84-.61A6.11,6.11,0,0,1,365,35.15a8.3,8.3,0,0,1-1.4-2.77,13.13,13.13,0,0,1-.49-3.71,10.64,10.64,0,0,1,.6-3.7,8.73,8.73,0,0,1,1.56-2.77,6.86,6.86,0,0,1,2.24-1.76,6.08,6.08,0,0,1,2.61-.61,5,5,0,0,1,2.34.48,8.61,8.61,0,0,1,1.8,1.29l-.2-2.58V13.27h5V37.1H375l-.34-1.66h-.14a8,8,0,0,1-2.07,1.48A5.46,5.46,0,0,1,370,37.51Zm1.3-4.08a3.12,3.12,0,0,0,1.47-.34,3.62,3.62,0,0,0,1.28-1.19V25a3.93,3.93,0,0,0-1.4-.85,4.28,4.28,0,0,0-1.39-.24,2.69,2.69,0,0,0-2.11,1.14,5.65,5.65,0,0,0-.92,3.55,6.63,6.63,0,0,0,.8,3.68A2.6,2.6,0,0,0,371.32,33.43Z" fill="#004380"/><path d="M391,37.51a9.49,9.49,0,0,1-3.36-.59,7.74,7.74,0,0,1-4.52-4.51,10.07,10.07,0,0,1-.65-3.74,9.66,9.66,0,0,1,.68-3.69A8.7,8.7,0,0,1,385,22.2a7.74,7.74,0,0,1,2.53-1.76,7.92,7.92,0,0,1,6.1,0,6.36,6.36,0,0,1,2.25,1.7,7.41,7.41,0,0,1,1.34,2.57,11.39,11.39,0,0,1,.44,3.22,10.68,10.68,0,0,1-.07,1.29c0,.41-.09.71-.13.92h-10.1a4.16,4.16,0,0,0,1.51,2.7,4.69,4.69,0,0,0,2.88.87,6.93,6.93,0,0,0,3.63-1.13l1.67,3A11.07,11.07,0,0,1,394.15,37,10.13,10.13,0,0,1,391,37.51Zm-3.74-10.67h6.09a3.93,3.93,0,0,0-.64-2.32,2.56,2.56,0,0,0-2.18-.88,3.08,3.08,0,0,0-2.09.78A4,4,0,0,0,387.29,26.84Z" fill="#004380"/><path d="M401.1,37.1V20.24h4.08l.34,2.18h.14a13.63,13.63,0,0,1,2.24-1.82,5.14,5.14,0,0,1,2.85-.77,5.25,5.25,0,0,1,2.91.73,5,5,0,0,1,1.75,2.09,15,15,0,0,1,2.37-2,5.09,5.09,0,0,1,2.94-.84,4.54,4.54,0,0,1,4,1.82,8.54,8.54,0,0,1,1.28,5V37.1h-5V27.28a4.66,4.66,0,0,0-.49-2.52,1.84,1.84,0,0,0-1.59-.68A4.52,4.52,0,0,0,416,25.72V37.1h-5V27.28a4.55,4.55,0,0,0-.5-2.52,1.81,1.81,0,0,0-1.58-.68,4.28,4.28,0,0,0-2.85,1.64V37.1Z" fill="#004380"/><path d="M432.11,43.7a9.77,9.77,0,0,1-1.33-.08,7.32,7.32,0,0,1-1-.26l.88-3.81.55.14a3,3,0,0,0,.57.07,2.79,2.79,0,0,0,1.94-.62,3.77,3.77,0,0,0,1-1.59l.24-.89-6.5-16.42h5l2.41,7.24c.25.77.48,1.56.68,2.35s.42,1.61.65,2.45h.13c.18-.8.37-1.6.56-2.4s.39-1.6.6-2.4l2-7.24h4.79l-5.84,17a23.48,23.48,0,0,1-1.28,2.81,8,8,0,0,1-1.53,2,6,6,0,0,1-2,1.2A7.59,7.59,0,0,1,432.11,43.7Z" fill="#004380"/><path d="M100.62,71.58l3.94-11.2h.79l3.94,11.2h-.82l-1.31-3.84h-4.43l-1.33,3.84ZM103.68,65,103,67.08h4L106.23,65c-.23-.67-.44-1.31-.65-1.93s-.4-1.26-.59-2h-.07q-.28,1-.6,2C104.12,63.68,103.91,64.32,103.68,65Z" fill="#004380"/><path d="M115.29,71.79a3.74,3.74,0,0,1-1.47-.29,3.36,3.36,0,0,1-1.17-.84,3.73,3.73,0,0,1-.79-1.33,5.59,5.59,0,0,1-.28-1.81,5.24,5.24,0,0,1,.31-1.83,3.94,3.94,0,0,1,.82-1.35,3.54,3.54,0,0,1,2.6-1.12,3,3,0,0,1,1.41.3,5.21,5.21,0,0,1,1,.7l-.44.53a3.68,3.68,0,0,0-.86-.62,2.26,2.26,0,0,0-1.08-.25,2.7,2.7,0,0,0-1.16.26,2.94,2.94,0,0,0-.94.75A3.84,3.84,0,0,0,112.6,66a4.3,4.3,0,0,0-.23,1.48,4.81,4.81,0,0,0,.21,1.46,3.62,3.62,0,0,0,.59,1.14,2.71,2.71,0,0,0,.94.74,2.86,2.86,0,0,0,1.21.26,2.71,2.71,0,0,0,1.2-.27,4,4,0,0,0,1-.66l.39.52a4.84,4.84,0,0,1-1.17.77A3.37,3.37,0,0,1,115.29,71.79Z" fill="#004380"/><path d="M123.91,71.79a3.74,3.74,0,0,1-1.47-.29,3.36,3.36,0,0,1-1.17-.84,3.73,3.73,0,0,1-.79-1.33,5.59,5.59,0,0,1-.28-1.81,5,5,0,0,1,.31-1.83,4.08,4.08,0,0,1,.81-1.35,3.51,3.51,0,0,1,1.19-.83,3.41,3.41,0,0,1,1.42-.29,3,3,0,0,1,1.41.3,5.21,5.21,0,0,1,1,.7l-.44.53a3.54,3.54,0,0,0-.87-.62,2.2,2.2,0,0,0-1.07-.25,2.66,2.66,0,0,0-1.16.26,2.94,2.94,0,0,0-.94.75,4.1,4.1,0,0,0-.63,1.15,4.56,4.56,0,0,0-.22,1.48A4.81,4.81,0,0,0,121.2,69a3.62,3.62,0,0,0,.59,1.14,2.71,2.71,0,0,0,.94.74,2.86,2.86,0,0,0,1.21.26,2.71,2.71,0,0,0,1.2-.27,4,4,0,0,0,1-.66l.39.52a4.84,4.84,0,0,1-1.17.77A3.37,3.37,0,0,1,123.91,71.79Z" fill="#004380"/><path d="M132.6,71.79a3.74,3.74,0,0,1-1.47-.29,3.5,3.5,0,0,1-1.2-.85,4,4,0,0,1-.81-1.34,5,5,0,0,1-.3-1.79,5.07,5.07,0,0,1,.3-1.8,4,4,0,0,1,.8-1.36,3.62,3.62,0,0,1,1.14-.85,3.16,3.16,0,0,1,1.31-.29,2.87,2.87,0,0,1,2.3,1A4.19,4.19,0,0,1,135.5,67v.31a1.53,1.53,0,0,1,0,.3h-5.88a4.91,4.91,0,0,0,.23,1.42,3.3,3.3,0,0,0,.63,1.12,2.69,2.69,0,0,0,1,.74,3,3,0,0,0,1.25.26,3.43,3.43,0,0,0,1.2-.2,3.84,3.84,0,0,0,1-.53l.3.58a10.87,10.87,0,0,1-1.08.54A3.7,3.7,0,0,1,132.6,71.79Zm-3-4.8h5.2a3.6,3.6,0,0,0-.65-2.35,2.15,2.15,0,0,0-1.75-.78,2.31,2.31,0,0,0-1,.22,2.55,2.55,0,0,0-.86.62,3.59,3.59,0,0,0-.63,1A4.34,4.34,0,0,0,129.59,67Z" fill="#004380"/><path d="M140,71.79c-.67,0-1-.44-1-1.3V59.36h.75V70.6a.59.59,0,0,0,.1.39.3.3,0,0,0,.25.13h.11l.2,0,.13.61-.23.06A1.35,1.35,0,0,1,140,71.79Z" fill="#004380"/><path d="M147.39,71.79a3.83,3.83,0,0,1-1.48-.29,3.56,3.56,0,0,1-1.19-.85,4,4,0,0,1-.81-1.34,5,5,0,0,1-.3-1.79,5.07,5.07,0,0,1,.3-1.8,4,4,0,0,1,.8-1.36,3.62,3.62,0,0,1,1.14-.85,3.16,3.16,0,0,1,1.31-.29,2.87,2.87,0,0,1,2.3,1,4.24,4.24,0,0,1,.83,2.79v.31a1.53,1.53,0,0,1,0,.3h-5.88a4.91,4.91,0,0,0,.23,1.42,3.3,3.3,0,0,0,.63,1.12,2.69,2.69,0,0,0,1,.74,3,3,0,0,0,1.25.26,3.47,3.47,0,0,0,1.2-.2,3.84,3.84,0,0,0,1-.53l.3.58a10.87,10.87,0,0,1-1.08.54A3.7,3.7,0,0,1,147.39,71.79Zm-3-4.8h5.2a3.6,3.6,0,0,0-.65-2.35,2.15,2.15,0,0,0-1.75-.78,2.31,2.31,0,0,0-1,.22,2.45,2.45,0,0,0-.86.62,3.59,3.59,0,0,0-.63,1A4.34,4.34,0,0,0,144.38,67Z" fill="#004380"/><path d="M153.78,71.58V63.42h.64l.07,1.51h0a4,4,0,0,1,1-1.24,2.06,2.06,0,0,1,1.31-.47,2.81,2.81,0,0,1,.43,0,1.42,1.42,0,0,1,.39.14l-.17.68a1.21,1.21,0,0,0-.36-.11,2.06,2.06,0,0,0-.39,0,1.9,1.9,0,0,0-1.14.47A3.74,3.74,0,0,0,154.53,66v5.56Z" fill="#004380"/><path d="M163,71.79a3,3,0,0,1-2.46-1.1,4.83,4.83,0,0,1-.92-3.17,5.09,5.09,0,0,1,.3-1.79,4.42,4.42,0,0,1,.79-1.36,3.44,3.44,0,0,1,1.15-.86,3.55,3.55,0,0,1,1.4-.29,3,3,0,0,1,1.28.25,5.39,5.39,0,0,1,1.13.73h0l0-.78h.66v8.16h-.65l-.06-1h-.05a5.24,5.24,0,0,1-1.17.87A2.91,2.91,0,0,1,163,71.79Zm.11-.67a2.57,2.57,0,0,0,1.3-.35,5.91,5.91,0,0,0,1.26-1V64.93a4.56,4.56,0,0,0-1.21-.81,3,3,0,0,0-1.17-.24,2.4,2.4,0,0,0-1.14.28,2.9,2.9,0,0,0-.91.77,3.79,3.79,0,0,0-.6,1.15,4.52,4.52,0,0,0-.22,1.44,5.72,5.72,0,0,0,.18,1.48,3.37,3.37,0,0,0,.52,1.13,2.37,2.37,0,0,0,.84.73A2.5,2.5,0,0,0,163.08,71.12Z" fill="#004380"/><path d="M173,71.79a2.4,2.4,0,0,1-1-.18,1.55,1.55,0,0,1-.62-.5,2.1,2.1,0,0,1-.34-.79,5.16,5.16,0,0,1-.09-1V64.07h-1.27v-.58l1.29-.07.1-2.36h.65v2.36h2.36v.65h-2.36v5.32a3.73,3.73,0,0,0,.06.7,1.58,1.58,0,0,0,.21.55,1,1,0,0,0,.41.35,1.55,1.55,0,0,0,.69.13,2,2,0,0,0,.52-.07l.5-.18.21.61a6.59,6.59,0,0,1-.72.22A2.5,2.5,0,0,1,173,71.79Z" fill="#004380"/><path d="M180.28,71.79a3.82,3.82,0,0,1-1.47-.29,3.5,3.5,0,0,1-1.2-.85,4,4,0,0,1-.81-1.34,5.25,5.25,0,0,1-.29-1.79,5.31,5.31,0,0,1,.29-1.8,4.22,4.22,0,0,1,.8-1.36,3.86,3.86,0,0,1,1.14-.85,3.24,3.24,0,0,1,1.32-.29,2.85,2.85,0,0,1,2.29,1,4.19,4.19,0,0,1,.84,2.79v.31a1,1,0,0,1,0,.3h-5.88a4.59,4.59,0,0,0,.24,1.42,3.28,3.28,0,0,0,.62,1.12,2.88,2.88,0,0,0,1,.74,3,3,0,0,0,1.26.26,3.51,3.51,0,0,0,1.2-.2,3.78,3.78,0,0,0,1-.53l.31.58a10.87,10.87,0,0,1-1.08.54A3.76,3.76,0,0,1,180.28,71.79Zm-3-4.8h5.2a3.6,3.6,0,0,0-.64-2.35,2.16,2.16,0,0,0-1.75-.78,2.33,2.33,0,0,0-1,.22,2.65,2.65,0,0,0-.86.62,3.35,3.35,0,0,0-.62,1A4.34,4.34,0,0,0,177.27,67Z" fill="#004380"/><path d="M189.37,71.79a3,3,0,0,1-2.46-1.1,4.83,4.83,0,0,1-.92-3.17,5.33,5.33,0,0,1,.29-1.79,4.23,4.23,0,0,1,.79-1.36,3.58,3.58,0,0,1,1.16-.86,3.41,3.41,0,0,1,1.38-.29,2.93,2.93,0,0,1,1.3.26,6.59,6.59,0,0,1,1.17.74l0-1.5V59.36h.75V71.58h-.64l-.07-1H192a5.24,5.24,0,0,1-1.17.87A2.91,2.91,0,0,1,189.37,71.79Zm.11-.67a2.57,2.57,0,0,0,1.3-.35,5.91,5.91,0,0,0,1.26-1V64.93a4.56,4.56,0,0,0-1.21-.81,3,3,0,0,0-1.17-.24,2.34,2.34,0,0,0-1.13.28,2.83,2.83,0,0,0-.92.77,3.79,3.79,0,0,0-.6,1.15,4.52,4.52,0,0,0-.22,1.44A5.72,5.72,0,0,0,187,69a3.37,3.37,0,0,0,.52,1.13,2.37,2.37,0,0,0,.84.73A2.5,2.5,0,0,0,189.48,71.12Z" fill="#004380"/><path d="M204.1,71.79a2.37,2.37,0,0,1-1-.18,1.65,1.65,0,0,1-.63-.5,2,2,0,0,1-.33-.79,5.16,5.16,0,0,1-.09-1V64.07h-1.28v-.58l1.29-.07.11-2.36h.64v2.36h2.36v.65h-2.36v5.32a3.73,3.73,0,0,0,.06.7,1.58,1.58,0,0,0,.21.55,1,1,0,0,0,.42.35,1.52,1.52,0,0,0,.69.13,2,2,0,0,0,.52-.07l.5-.18.2.61a6.43,6.43,0,0,1-.71.22A2.57,2.57,0,0,1,204.1,71.79Z" fill="#004380"/><path d="M208.45,71.58V63.42h.64l.07,1.51h.05a4.16,4.16,0,0,1,1-1.24,2.07,2.07,0,0,1,1.32-.47,2.67,2.67,0,0,1,.42,0,1.32,1.32,0,0,1,.39.14l-.17.68a1.16,1.16,0,0,0-.35-.11,2.25,2.25,0,0,0-.4,0,1.9,1.9,0,0,0-1.14.47A3.74,3.74,0,0,0,209.2,66v5.56Z" fill="#004380"/><path d="M217.65,71.79a3.05,3.05,0,0,1-2.47-1.1,4.83,4.83,0,0,1-.92-3.17,5.09,5.09,0,0,1,.3-1.79,4.42,4.42,0,0,1,.79-1.36,3.38,3.38,0,0,1,1.16-.86,3.46,3.46,0,0,1,1.39-.29,3,3,0,0,1,1.28.25,5.39,5.39,0,0,1,1.13.73h0l.05-.78h.66v8.16h-.64l-.07-1h0a5.24,5.24,0,0,1-1.17.87A2.87,2.87,0,0,1,217.65,71.79Zm.1-.67a2.57,2.57,0,0,0,1.3-.35,5.91,5.91,0,0,0,1.26-1V64.93a4.56,4.56,0,0,0-1.21-.81,3,3,0,0,0-1.17-.24,2.34,2.34,0,0,0-1.13.28,2.7,2.7,0,0,0-.91.77,3.6,3.6,0,0,0-.61,1.15,4.52,4.52,0,0,0-.22,1.44,5.72,5.72,0,0,0,.18,1.48,3.37,3.37,0,0,0,.52,1.13,2.55,2.55,0,0,0,.84.73A2.5,2.5,0,0,0,217.75,71.12Z" fill="#004380"/><path d="M225.86,61.45a.66.66,0,0,1-.49-.19.61.61,0,0,1-.19-.47.66.66,0,0,1,.19-.51.73.73,0,0,1,.49-.17.72.72,0,0,1,.48.17.66.66,0,0,1,.2.51.62.62,0,0,1-.2.47A.65.65,0,0,1,225.86,61.45Zm-.39,10.13V63.42h.74v8.16Z" fill="#004380"/><path d="M230.63,71.58V63.42h.65l.07,1.26h.05a7.62,7.62,0,0,1,1.29-1.05,2.85,2.85,0,0,1,1.51-.41,2.21,2.21,0,0,1,1.87.76,3.82,3.82,0,0,1,.6,2.37v5.23h-.75V66.45a3.38,3.38,0,0,0-.43-1.93,1.62,1.62,0,0,0-1.44-.62,2.37,2.37,0,0,0-1.33.38,8.2,8.2,0,0,0-1.34,1.15v6.15Z" fill="#004380"/><path d="M241.34,61.45a.65.65,0,0,1-.48-.19.62.62,0,0,1-.2-.47.66.66,0,0,1,.2-.51.72.72,0,0,1,.48-.17.73.73,0,0,1,.49.17.66.66,0,0,1,.19.51.61.61,0,0,1-.19.47A.66.66,0,0,1,241.34,61.45ZM241,71.58V63.42h.75v8.16Z" fill="#004380"/><path d="M246.12,71.58V63.42h.65l.06,1.26h.06a7.25,7.25,0,0,1,1.29-1.05,2.82,2.82,0,0,1,1.51-.41,2.22,2.22,0,0,1,1.87.76,3.82,3.82,0,0,1,.6,2.37v5.23h-.75V66.45a3.37,3.37,0,0,0-.44-1.93,1.6,1.6,0,0,0-1.43-.62,2.37,2.37,0,0,0-1.33.38,7.8,7.8,0,0,0-1.34,1.15v6.15Z" fill="#004380"/><path d="M259.26,75.47a4.85,4.85,0,0,1-2.85-.88l.33-.59a4.5,4.5,0,0,0,1.25.64,4,4,0,0,0,1.27.21,2.41,2.41,0,0,0,1.91-.72,2.8,2.8,0,0,0,.64-1.95l0-1.86a5.42,5.42,0,0,1-1.18.88,3.11,3.11,0,0,1-1.51.38,3,3,0,0,1-2.45-1.08,4.66,4.66,0,0,1-.91-3.1,4.74,4.74,0,0,1,.29-1.74,3.78,3.78,0,0,1,.79-1.32,3.35,3.35,0,0,1,1.15-.83,3.3,3.3,0,0,1,1.39-.29,3,3,0,0,1,1.28.25,5.18,5.18,0,0,1,1.1.7h.05l.07-.75h.66V72.3a3.16,3.16,0,0,1-.85,2.32A3.3,3.3,0,0,1,259.26,75.47Zm0-4.55a2.58,2.58,0,0,0,1.29-.35,5.91,5.91,0,0,0,1.26-1V64.93a4.56,4.56,0,0,0-1.21-.81,3,3,0,0,0-1.17-.24,2.42,2.42,0,0,0-1.13.27,2.94,2.94,0,0,0-.91.74,3.44,3.44,0,0,0-.61,1.12,4.18,4.18,0,0,0-.22,1.39,4.32,4.32,0,0,0,.69,2.55A2.33,2.33,0,0,0,259.26,70.92Z" fill="#004380"/><path d="M273.88,71.79a2.32,2.32,0,0,1-1-.18,1.51,1.51,0,0,1-.63-.5,2.1,2.1,0,0,1-.34-.79,5.16,5.16,0,0,1-.09-1V64.07h-1.27v-.58l1.29-.07.1-2.36h.65v2.36H275v.65h-2.36v5.32a3.73,3.73,0,0,0,.06.7,1.4,1.4,0,0,0,.21.55,1,1,0,0,0,.41.35,1.55,1.55,0,0,0,.69.13,2,2,0,0,0,.52-.07l.5-.18.21.61a6.59,6.59,0,0,1-.72.22A2.57,2.57,0,0,1,273.88,71.79Z" fill="#004380"/><path d="M278.23,71.58V59.36H279V64.7a7.8,7.8,0,0,1,1.31-1.07,2.85,2.85,0,0,1,1.51-.41,2.21,2.21,0,0,1,1.87.76,3.82,3.82,0,0,1,.6,2.37v5.23h-.75V66.45a3.38,3.38,0,0,0-.43-1.93,1.62,1.62,0,0,0-1.44-.62,2.37,2.37,0,0,0-1.33.38A8.2,8.2,0,0,0,279,65.43v6.15Z" fill="#004380"/><path d="M288.48,71.58V63.42h.65l.07,1.51h.05a4,4,0,0,1,1-1.24,2.07,2.07,0,0,1,1.32-.47,2.81,2.81,0,0,1,.43,0,1.42,1.42,0,0,1,.39.14l-.17.68a1.3,1.3,0,0,0-.36-.11,2.06,2.06,0,0,0-.39,0,1.93,1.93,0,0,0-1.15.47A3.92,3.92,0,0,0,289.23,66v5.56Z" fill="#004380"/><path d="M298,71.79a3.5,3.5,0,0,1-1.39-.29,3.56,3.56,0,0,1-1.17-.84,3.88,3.88,0,0,1-.79-1.33,5.09,5.09,0,0,1-.3-1.81,5.24,5.24,0,0,1,.3-1.83,3.89,3.89,0,0,1,.79-1.35,3.53,3.53,0,0,1,1.17-.83,3.33,3.33,0,0,1,1.39-.29,3.42,3.42,0,0,1,1.41.29,3.53,3.53,0,0,1,1.17.83,4.06,4.06,0,0,1,.8,1.35,5.25,5.25,0,0,1,.29,1.83,5.09,5.09,0,0,1-.29,1.81,4.07,4.07,0,0,1-.8,1.33,3.56,3.56,0,0,1-1.17.84A3.59,3.59,0,0,1,298,71.79Zm0-.67a2.65,2.65,0,0,0,1.15-.26,2.74,2.74,0,0,0,.92-.74,3.85,3.85,0,0,0,.6-1.14,5,5,0,0,0,0-2.94,4,4,0,0,0-.6-1.15,2.77,2.77,0,0,0-.92-.75,2.65,2.65,0,0,0-1.15-.26,2.58,2.58,0,0,0-1.14.26,2.84,2.84,0,0,0-.91.75,4,4,0,0,0-.6,1.15,5,5,0,0,0,0,2.94,3.85,3.85,0,0,0,.6,1.14,2.8,2.8,0,0,0,.91.74A2.58,2.58,0,0,0,298,71.12Z" fill="#004380"/><path d="M307.69,71.79a2.23,2.23,0,0,1-1.87-.77,3.88,3.88,0,0,1-.59-2.36V63.42H306v5.13a3.38,3.38,0,0,0,.43,1.93,1.6,1.6,0,0,0,1.42.63,2.39,2.39,0,0,0,1.33-.4,6.59,6.59,0,0,0,1.3-1.27v-6h.75v8.16h-.63l-.08-1.36h0a5.28,5.28,0,0,1-1.25,1.14A2.81,2.81,0,0,1,307.69,71.79Z" fill="#004380"/><path d="M318.44,75.47a5.12,5.12,0,0,1-1.54-.23,5.41,5.41,0,0,1-1.32-.65l.34-.59a4.44,4.44,0,0,0,1.24.64,4,4,0,0,0,1.28.21,2.42,2.42,0,0,0,1.91-.72,2.8,2.8,0,0,0,.64-1.95V70.32a5.19,5.19,0,0,1-1.18.88,3.1,3.1,0,0,1-1.5.38,3.06,3.06,0,0,1-2.46-1.08,4.72,4.72,0,0,1-.91-3.1,5,5,0,0,1,.29-1.74,3.93,3.93,0,0,1,.79-1.32,3.49,3.49,0,0,1,1.16-.83,3.26,3.26,0,0,1,1.38-.29,3.06,3.06,0,0,1,1.29.25,4.89,4.89,0,0,1,1.09.7H321l.07-.75h.67V72.3a3.2,3.2,0,0,1-.85,2.32A3.32,3.32,0,0,1,318.44,75.47Zm0-4.55a2.61,2.61,0,0,0,1.29-.35,5.91,5.91,0,0,0,1.26-1V64.93a4.59,4.59,0,0,0-1.22-.81,3,3,0,0,0-1.16-.24,2.39,2.39,0,0,0-1.13.27,2.94,2.94,0,0,0-.91.74A3.46,3.46,0,0,0,316,66a4.45,4.45,0,0,0-.22,1.39,4.32,4.32,0,0,0,.7,2.55A2.32,2.32,0,0,0,318.44,70.92Z" fill="#004380"/><path d="M326.16,71.58V59.36h.74V64.7a7.8,7.8,0,0,1,1.31-1.07,2.86,2.86,0,0,1,1.52-.41,2.24,2.24,0,0,1,1.87.76,3.9,3.9,0,0,1,.59,2.37v5.23h-.75V66.45a3.38,3.38,0,0,0-.43-1.93,1.62,1.62,0,0,0-1.44-.62,2.32,2.32,0,0,0-1.32.38,7.82,7.82,0,0,0-1.35,1.15v6.15Z" fill="#004380"/><path d="M344.11,71.79a3.67,3.67,0,0,1-1.47-.29,3.5,3.5,0,0,1-1.18-.84,3.87,3.87,0,0,1-.78-1.33,5.33,5.33,0,0,1-.28-1.81,5,5,0,0,1,.31-1.83,3.92,3.92,0,0,1,.81-1.35,3.57,3.57,0,0,1,1.18-.83,3.47,3.47,0,0,1,1.42-.29,3,3,0,0,1,1.41.3,5,5,0,0,1,1,.7l-.44.53a3.54,3.54,0,0,0-.87-.62,2.22,2.22,0,0,0-1.07-.25,2.63,2.63,0,0,0-1.16.26,2.94,2.94,0,0,0-.94.75,4.1,4.1,0,0,0-.63,1.15,4.92,4.92,0,0,0,0,2.94,3.62,3.62,0,0,0,.59,1.14,2.71,2.71,0,0,0,.94.74,2.82,2.82,0,0,0,1.21.26,2.71,2.71,0,0,0,1.2-.27,4.21,4.21,0,0,0,1-.66l.39.52a4.71,4.71,0,0,1-1.18.77A3.32,3.32,0,0,1,344.11,71.79Z" fill="#004380"/><path d="M352.68,71.79a3.51,3.51,0,0,1-1.4-.29,3.42,3.42,0,0,1-1.16-.84,3.9,3.9,0,0,1-.8-1.33,5.09,5.09,0,0,1-.3-1.81,5.24,5.24,0,0,1,.3-1.83,3.9,3.9,0,0,1,.8-1.35,3.39,3.39,0,0,1,1.16-.83,3.35,3.35,0,0,1,1.4-.29,3.41,3.41,0,0,1,1.4.29,3.34,3.34,0,0,1,1.17.83,4.06,4.06,0,0,1,.8,1.35,5.24,5.24,0,0,1,.3,1.83,5.09,5.09,0,0,1-.3,1.81,4.07,4.07,0,0,1-.8,1.33,3.36,3.36,0,0,1-1.17.84A3.58,3.58,0,0,1,352.68,71.79Zm0-.67a2.61,2.61,0,0,0,1.14-.26,2.64,2.64,0,0,0,.92-.74,3.44,3.44,0,0,0,.6-1.14,4.81,4.81,0,0,0,0-2.94,3.59,3.59,0,0,0-.6-1.15,2.67,2.67,0,0,0-.92-.75,2.61,2.61,0,0,0-1.14-.26,2.58,2.58,0,0,0-1.14.26,2.64,2.64,0,0,0-.91.75A3.82,3.82,0,0,0,350,66,5,5,0,0,0,350,69a3.65,3.65,0,0,0,.61,1.14,2.61,2.61,0,0,0,.91.74A2.58,2.58,0,0,0,352.68,71.12Z" fill="#004380"/><path d="M361.07,71.79c-.67,0-1-.44-1-1.3V59.36h.75V70.6a.59.59,0,0,0,.1.39.3.3,0,0,0,.25.13h.11l.2,0,.14.61-.24.06A1.3,1.3,0,0,1,361.07,71.79Z" fill="#004380"/><path d="M366.38,71.79c-.67,0-1-.44-1-1.3V59.36h.75V70.6a.65.65,0,0,0,.1.39.32.32,0,0,0,.26.13h.11l.19,0,.14.61-.24.06A1.26,1.26,0,0,1,366.38,71.79Z" fill="#004380"/><path d="M373.38,71.79a3,3,0,0,1-2.46-1.1,4.78,4.78,0,0,1-.92-3.17,5.09,5.09,0,0,1,.3-1.79,4.23,4.23,0,0,1,.79-1.36,3.34,3.34,0,0,1,1.15-.86,3.51,3.51,0,0,1,1.4-.29,3,3,0,0,1,1.28.25,5.66,5.66,0,0,1,1.13.73h0l.06-.78h.66v8.16h-.65l-.07-1H376a5.18,5.18,0,0,1-1.16.87A2.93,2.93,0,0,1,373.38,71.79Zm.1-.67a2.51,2.51,0,0,0,1.3-.35,5.71,5.71,0,0,0,1.27-1V64.93a4.59,4.59,0,0,0-1.22-.81,2.94,2.94,0,0,0-1.16-.24,2.35,2.35,0,0,0-1.14.28,2.9,2.9,0,0,0-.91.77,3.58,3.58,0,0,0-.6,1.15,4.52,4.52,0,0,0-.22,1.44A5.72,5.72,0,0,0,371,69a3.35,3.35,0,0,0,.51,1.13,2.49,2.49,0,0,0,.85.73A2.46,2.46,0,0,0,373.48,71.12Z" fill="#004380"/><path d="M384.4,71.79a3.21,3.21,0,0,1-1.24-.28,5.2,5.2,0,0,1-1.21-.76h0l-.08.83h-.63V59.36H382v3.53l0,1.6a7.55,7.55,0,0,1,1.35-.9,3.12,3.12,0,0,1,1.48-.37,2.8,2.8,0,0,1,2.44,1.13,5,5,0,0,1,.82,3,5.67,5.67,0,0,1-.29,1.86,4.06,4.06,0,0,1-.79,1.38,3.44,3.44,0,0,1-1.15.87A3.29,3.29,0,0,1,384.4,71.79Zm0-.67a2.46,2.46,0,0,0,1.14-.27,2.73,2.73,0,0,0,.9-.76A3.79,3.79,0,0,0,387,68.9a5.17,5.17,0,0,0,.21-1.52,6.75,6.75,0,0,0-.14-1.39,3.49,3.49,0,0,0-.45-1.11,2.18,2.18,0,0,0-.8-.74,2.58,2.58,0,0,0-1.19-.26,2.78,2.78,0,0,0-1.28.35,7.24,7.24,0,0,0-1.39,1v4.85a4.41,4.41,0,0,0,1.31.81A3.13,3.13,0,0,0,384.36,71.12Z" fill="#004380"/><path d="M394.66,71.79a3.5,3.5,0,0,1-1.39-.29,3.42,3.42,0,0,1-1.16-.84,3.9,3.9,0,0,1-.8-1.33,5.09,5.09,0,0,1-.3-1.81,5.24,5.24,0,0,1,.3-1.83,3.9,3.9,0,0,1,.8-1.35,3.39,3.39,0,0,1,1.16-.83,3.33,3.33,0,0,1,1.39-.29,3.49,3.49,0,0,1,2.58,1.12,4.06,4.06,0,0,1,.8,1.35,5.24,5.24,0,0,1,.3,1.83,5.09,5.09,0,0,1-.3,1.81,4.07,4.07,0,0,1-.8,1.33,3.46,3.46,0,0,1-1.17.84A3.59,3.59,0,0,1,394.66,71.79Zm0-.67a2.62,2.62,0,0,0,2.07-1,3.44,3.44,0,0,0,.6-1.14,5,5,0,0,0,0-2.94,3.59,3.59,0,0,0-.6-1.15,2.59,2.59,0,0,0-2.07-1,2.57,2.57,0,0,0-1.13.26,2.64,2.64,0,0,0-.91.75A3.82,3.82,0,0,0,392,66,5,5,0,0,0,392,69a3.65,3.65,0,0,0,.61,1.14,2.61,2.61,0,0,0,.91.74A2.57,2.57,0,0,0,394.66,71.12Z" fill="#004380"/><path d="M402.06,71.58V63.42h.64l.07,1.51h.05a4.16,4.16,0,0,1,1-1.24,2.07,2.07,0,0,1,1.32-.47,2.67,2.67,0,0,1,.42,0,1.22,1.22,0,0,1,.39.14l-.17.68a1.13,1.13,0,0,0-.36-.11,2.06,2.06,0,0,0-.39,0,1.9,1.9,0,0,0-1.14.47A3.74,3.74,0,0,0,402.81,66v5.56Z" fill="#004380"/><path d="M411.26,71.79a3.05,3.05,0,0,1-2.47-1.1,4.83,4.83,0,0,1-.92-3.17,5.09,5.09,0,0,1,.3-1.79,4.42,4.42,0,0,1,.79-1.36,3.38,3.38,0,0,1,1.16-.86,3.46,3.46,0,0,1,1.39-.29,3,3,0,0,1,1.28.25,5.39,5.39,0,0,1,1.13.73h0l.05-.78h.66v8.16H414l-.07-1h0a5.24,5.24,0,0,1-1.17.87A2.87,2.87,0,0,1,411.26,71.79Zm.1-.67a2.57,2.57,0,0,0,1.3-.35,5.91,5.91,0,0,0,1.26-1V64.93a4.56,4.56,0,0,0-1.21-.81,3,3,0,0,0-1.17-.24,2.34,2.34,0,0,0-1.13.28,2.7,2.7,0,0,0-.91.77,3.6,3.6,0,0,0-.61,1.15,4.82,4.82,0,0,0-.22,1.44,5.72,5.72,0,0,0,.18,1.48,3.37,3.37,0,0,0,.52,1.13,2.55,2.55,0,0,0,.84.73A2.5,2.5,0,0,0,411.36,71.12Z" fill="#004380"/><path d="M421.3,71.79a2.35,2.35,0,0,1-1-.18,1.65,1.65,0,0,1-.63-.5,2,2,0,0,1-.33-.79,4.46,4.46,0,0,1-.1-1V64.07H418v-.58l1.29-.07.1-2.36H420v2.36h2.36v.65H420v5.32a3.73,3.73,0,0,0,.06.7,1.58,1.58,0,0,0,.21.55,1,1,0,0,0,.42.35,1.47,1.47,0,0,0,.68.13,2,2,0,0,0,.52-.07l.5-.18.21.61a6.59,6.59,0,0,1-.72.22A2.5,2.5,0,0,1,421.3,71.79Z" fill="#004380"/><path d="M426.05,61.45a.66.66,0,0,1-.49-.19.61.61,0,0,1-.19-.47.66.66,0,0,1,.19-.51.73.73,0,0,1,.49-.17.72.72,0,0,1,.48.17.66.66,0,0,1,.2.51.62.62,0,0,1-.2.47A.65.65,0,0,1,426.05,61.45Zm-.39,10.13V63.42h.74v8.16Z" fill="#004380"/><path d="M433.8,71.79a3.55,3.55,0,0,1-1.4-.29,3.42,3.42,0,0,1-1.16-.84,4.07,4.07,0,0,1-.8-1.33,5.09,5.09,0,0,1-.3-1.81,5.24,5.24,0,0,1,.3-1.83,4.06,4.06,0,0,1,.8-1.35,3.5,3.5,0,0,1,4-.83,3.34,3.34,0,0,1,1.17.83,3.9,3.9,0,0,1,.8,1.35,5.24,5.24,0,0,1,.3,1.83,5.09,5.09,0,0,1-.3,1.81,3.9,3.9,0,0,1-.8,1.33,3.36,3.36,0,0,1-1.17.84A3.58,3.58,0,0,1,433.8,71.79Zm0-.67a2.65,2.65,0,0,0,1.15-.26,2.7,2.7,0,0,0,.91-.74,3.65,3.65,0,0,0,.61-1.14,5,5,0,0,0,0-2.94,3.82,3.82,0,0,0-.61-1.15,2.73,2.73,0,0,0-.91-.75,2.65,2.65,0,0,0-1.15-.26,2.58,2.58,0,0,0-1.14.26,2.73,2.73,0,0,0-.91.75,3.59,3.59,0,0,0-.6,1.15,4.81,4.81,0,0,0,0,2.94,3.44,3.44,0,0,0,.6,1.14,2.7,2.7,0,0,0,.91.74A2.58,2.58,0,0,0,433.8,71.12Z" fill="#004380"/><path d="M441.19,71.58V63.42h.65l.07,1.26h0a7.62,7.62,0,0,1,1.29-1.05,2.85,2.85,0,0,1,1.51-.41,2.21,2.21,0,0,1,1.87.76,3.82,3.82,0,0,1,.6,2.37v5.23h-.75V66.45a3.47,3.47,0,0,0-.43-1.93,1.62,1.62,0,0,0-1.44-.62,2.37,2.37,0,0,0-1.33.38,8.2,8.2,0,0,0-1.34,1.15v6.15Z" fill="#004380"/><line x1="79.46" x2="79.46" y2="82.29" fill="none" stroke="#0096dc" stroke-miterlimit="10"/><line x1="470.81" x2="470.81" y2="82.29" fill="none" stroke="#0096dc" stroke-miterlimit="10"/><line x1="96.59" y1="52.02" x2="453.84" y2="52.02" fill="none" stroke="#0096dc" stroke-miterlimit="10" stroke-width="0.5"/><path d="M545.3,26.76c-2.4-.71-3.83-.86-3.83-2.2,0-.92.86-1.6,2.35-1.6a16.68,16.68,0,0,1,4.86,1.38l1.58-3.65A13.77,13.77,0,0,0,544,19.06c-4.66,0-7.65,2.54-7.65,5.89,0,2.91,1.9,4.22,6,5.3,2.29.6,3.68,1.07,3.68,2.56a2.14,2.14,0,0,1-2.37,1.92,15,15,0,0,1-6.23-1.83l-1.69,3.58a12.47,12.47,0,0,0,7.24,2.2c5,0,8.19-2.64,8.19-6.26C551.12,29.62,549.22,27.91,545.3,26.76Z" fill="#004380"/><path d="M501.76,19.41h-4.58V38.13h4.76l0-11.12s3.72,6.43,7,11.12h4V19.42h-4.67v9.75A110.73,110.73,0,0,0,501.76,19.41Z" fill="#004380"/><path d="M528.24,38.1V30h-7.07V38.1h-4.76V19.42h4.76v7.1h7.07v-7.1H533V38.1Z" fill="#004380"/><path d="M523.61,49.53c-1.55-2.77-6.82-7.37-16.2-5.86a43.63,43.63,0,0,1-6.92.39c-7.46-.57-8.76-4.69-8.83-4.92h-1.87s1,8,9.19,9.37a35.53,35.53,0,0,0,8.86-.51c6.61-1.08,11.68-1.25,15.78,4.42,0,0,0,.06.1.06a.1.1,0,0,0,.1-.06A3.67,3.67,0,0,0,523.61,49.53Z" fill="#0096dc"/><path d="M555.43,39.14c-.07.23-1.45,4.33-8.91,4.9a43.74,43.74,0,0,1-6.93-.39c-9.29-1.49-13.22,3.09-14.36,5.58a5.18,5.18,0,0,0-.34,3.19.12.12,0,0,0,.1.06s.09-.06.09-.06c4.11-5.67,7.47-5.52,14.09-4.43a36,36,0,0,0,8.86.5c8.16-1.35,9.27-9.35,9.27-9.35Z" fill="#0096dc"/><path d="M496.36,63a6.94,6.94,0,0,1-2.26.4,3.44,3.44,0,0,1-3.76-3.7,3.68,3.68,0,0,1,4-3.79,4.59,4.59,0,0,1,1.83.34l-.23.77a3.86,3.86,0,0,0-1.62-.31,2.74,2.74,0,0,0-3,2.94,2.68,2.68,0,0,0,2.83,3,3.09,3.09,0,0,0,1.26-.19V60.22h-1.49v-.76h2.42Z" fill="#234c7b"/><path d="M502.56,60.63a2.58,2.58,0,0,1-2.62,2.8,2.5,2.5,0,0,1-2.53-2.71A2.57,2.57,0,0,1,500,57.93,2.48,2.48,0,0,1,502.56,60.63Zm-4.18.06c0,1.15.67,2,1.6,2s1.6-.86,1.6-2c0-.89-.45-2-1.58-2S498.38,59.69,498.38,60.69Z" fill="#234c7b"/><path d="M503.74,55.59h.95v7.72h-.95Z" fill="#234c7b"/><path d="M510.82,55.59V62c0,.47,0,1,0,1.36H510l0-.91h0a2,2,0,0,1-1.8,1,2.4,2.4,0,0,1-2.25-2.68,2.51,2.51,0,0,1,2.36-2.82,1.76,1.76,0,0,1,1.59.8h0V55.59Zm-1,4.6a1.81,1.81,0,0,0,0-.4,1.4,1.4,0,0,0-1.38-1.11c-1,0-1.58.87-1.58,2s.52,1.95,1.56,1.95a1.45,1.45,0,0,0,1.4-1.14,1.82,1.82,0,0,0,0-.42Z" fill="#234c7b"/><path d="M512.91,60.85a1.69,1.69,0,0,0,1.81,1.83,3.45,3.45,0,0,0,1.45-.27l.17.68a4.16,4.16,0,0,1-1.75.33A2.44,2.44,0,0,1,512,60.77a2.55,2.55,0,0,1,2.47-2.84,2.22,2.22,0,0,1,2.17,2.48,3.94,3.94,0,0,1,0,.44Zm2.81-.68a1.37,1.37,0,0,0-1.33-1.56,1.59,1.59,0,0,0-1.47,1.56Z" fill="#234c7b"/><path d="M517.8,59.47c0-.54,0-1,0-1.42h.85l.06.87h0a1.94,1.94,0,0,1,1.74-1c.73,0,1.86.43,1.86,2.24v3.14h-1v-3c0-.85-.31-1.56-1.22-1.56a1.36,1.36,0,0,0-1.28,1,1.47,1.47,0,0,0-.07.45v3.16h-1Z" fill="#234c7b"/><path d="M527.61,56h.95v4.91c0,1.94-1,2.54-2.22,2.54a3,3,0,0,1-1-.17l.14-.78a2.13,2.13,0,0,0,.79.15c.85,0,1.35-.38,1.35-1.82Z" fill="#234c7b"/><path d="M534.48,61.88c0,.54,0,1,0,1.43h-.85l0-.86h0a2,2,0,0,1-1.74,1c-.83,0-1.82-.46-1.82-2.31V58.05h1V61c0,1,.3,1.68,1.17,1.68a1.38,1.38,0,0,0,1.26-.87,1.3,1.3,0,0,0,.09-.49V58.05h1Z" fill="#234c7b"/><path d="M536,63.31c0-.36,0-.89,0-1.36V55.59h1v3.3h0a2,2,0,0,1,1.8-1c1.3,0,2.23,1.08,2.22,2.68,0,1.89-1.19,2.82-2.36,2.82a1.89,1.89,0,0,1-1.77-1h0l0,.87Zm1-2.11a2,2,0,0,0,0,.35,1.49,1.49,0,0,0,1.44,1.12c1,0,1.6-.82,1.6-2s-.54-2-1.57-2A1.51,1.51,0,0,0,537,59.86a1.45,1.45,0,0,0-.06.39Z" fill="#234c7b"/><path d="M543.26,56.57a.6.6,0,0,1-1.19,0,.58.58,0,0,1,.6-.6A.57.57,0,0,1,543.26,56.57Zm-1.07,6.74V58.05h1v5.26Z" fill="#234c7b"/><path d="M544.71,55.59h1v7.72h-1Z" fill="#234c7b"/><path d="M547.78,60.85a1.68,1.68,0,0,0,1.8,1.83,3.5,3.5,0,0,0,1.46-.27l.16.68a4.08,4.08,0,0,1-1.75.33,2.45,2.45,0,0,1-2.59-2.65,2.56,2.56,0,0,1,2.47-2.84,2.23,2.23,0,0,1,2.18,2.48,3.94,3.94,0,0,1,0,.44Zm2.8-.68a1.37,1.37,0,0,0-1.32-1.56,1.58,1.58,0,0,0-1.47,1.56Z" fill="#234c7b"/><path d="M553.2,60.85a1.68,1.68,0,0,0,1.8,1.83,3.5,3.5,0,0,0,1.46-.27l.16.68a4.08,4.08,0,0,1-1.75.33,2.45,2.45,0,0,1-2.59-2.65,2.56,2.56,0,0,1,2.47-2.84,2.23,2.23,0,0,1,2.18,2.48,2.27,2.27,0,0,1,0,.44Zm2.8-.68a1.37,1.37,0,0,0-1.32-1.56,1.58,1.58,0,0,0-1.47,1.56Z" fill="#234c7b"/></svg>