<svg xmlns="http://www.w3.org/2000/svg" width="1684.74" height="1433.53" viewBox="0 0 1684.74 1433.53"><ellipse cx="809.14" cy="1404.87" rx="231.49" ry="28.66" fill="#2a3756" opacity="0.3"/><path d="M1127.75,30.62C986.68-50.32,785,38,563.22,192.31S66.88,433.5,192.09,732.41s537.29,487.86,765,407.66S1581,290.66,1127.75,30.62Z" fill="#092769" opacity="0.9"/><polygon points="752.83 1360.58 711.01 1349.17 711.99 1295.6 756.26 1295.6 752.83 1360.58" fill="#e2857e"/><path d="M679.41,735.71s14.83,158.57,20.31,305c-9.59,122.36-.7,242,.94,258.48l61.94.11c.53-32,7.42-148,21-252.36,19.94-153.29,48.91-322,48.91-322S704.85,672.09,679.41,735.71Z" fill="#2a3756"/><polygon points="864.31 1360.58 906.13 1349.17 905.15 1295.6 860.88 1295.6 864.31 1360.58" fill="#e2857e"/><path d="M937.73,735.71S912.5,894.46,917.65,1039c4.32,121.64.48,243.67-1.17,260.1l-61.94.11c-.53-32-7.41-147.87-21-252.16-19.95-153.34-48.94-322.15-48.94-322.15S912.3,672.09,937.73,735.71Z" fill="#2a3756"/><path d="M907.5,324.75c-27.62-16.28-69.39-30.52-77-33.37-18.2-7.65-27-1.49-51.07,0-22.44,1.4-61,18.54-81.31,33.49-19,14-13.58,76.09-18.68,150.86C670,614.59,644.14,977.19,644.14,977.19c157.71,53.56,318.09,2,318.09,2s-18.81-378.68-25.82-516.11C933.28,401.72,915.11,329.23,907.5,324.75Z" fill="#f4f4f4"/><polygon points="779.4 291.38 805.88 569.43 830.47 291.38 779.4 291.38" fill="#7d8eed"/><path d="M830.47,291.38s-19.88,17.09-51.07,0l4.48-55H826Z" fill="#d37976"/><path d="M907.5,324.75s188.12,156.54,94.17,239.76c-61.83,54.76-149.16-74.72-149.16-74.72l56.38-74.42Z" fill="#f4f4f4"/><path d="M665.27,344.63S526.34,566.49,605.66,595.85s149-118.18,149-118.18l-3.86-112.31L671,344.63Z" fill="#f4f4f4"/><path d="M674,379.86s-17.33-1.65-20.14-9.29-7-38.54-7-38.54-9-38-1.82-40.28c4.25-1.35,9,22.85,10.53,32,.11.47,1.28-.49,1.28-.49s-7.7-47.05,1.14-48.57c6.92-1.18,7.57,37.44,7.85,46l1.72-.38s-3.89-49.67,4.59-50,6.61,50,6.61,50l2.16.15s-1.67-43.19,4.8-43.58c7.49-.44,6.37,45.32,6.37,45.32s2.62,17.28,3.72,18.3,5-12.3,8.62-16.72,10-7.67,13.14-7.2-.79,8.89-6.15,18.95-6.63,21.08-14.07,28.37S678.51,380.56,674,379.86Z" fill="#e2857e"/><path d="M901.9,499.45s17.32-1.65,20.14-9.29,7-38.55,7-38.55,9-38,1.82-40.27c-4.25-1.36-9,22.84-10.53,32-.12.47-1.29-.49-1.29-.49s7.71-47.06-1.13-48.57c-6.92-1.19-7.57,37.44-7.85,46l-1.72-.38s3.89-49.67-4.6-50-6.61,50-6.61,50l-2.15.15s1.66-43.19-4.8-43.57c-7.49-.45-6.37,45.31-6.37,45.31s-2.62,17.29-3.72,18.3-5-12.3-8.62-16.71-10-7.68-13.14-7.21.79,8.9,6.15,19,6.63,21.07,14.07,28.36S897.36,500.15,901.9,499.45Z" fill="#e2857e"/><path d="M862.2,1331.9a39.44,39.44,0,0,1,22.84-7,39.93,39.93,0,0,1,20.77,5.64l17.3,60.82v11.94c0-.07.07.34-.21,1-8.7,4.25-22.17,7-37.3,7-16.62,0-31.24-3.29-39.72-8.29v-11.65Z" fill="#fff"/><path d="M754.3,1331.9a39.46,39.46,0,0,0-22.84-7,39.93,39.93,0,0,0-20.77,5.64l-17.3,60.82v11.94c0-.07-.07.34.21,1,8.7,4.25,22.17,7,37.3,7,16.62,0,31.24-3.29,39.72-8.29v-11.65Z" fill="#fff"/><path d="M748.84,194.74s-10.26-34.47-1.43-57.47c11.11-28.94,64.08-61.11,81.44-53.05s-8.27,26.51-.37,28.8,12.7-16.06,18-12.67c21.36,13.76,7.53,86.2,7.53,86.2l-74.43-22.28Z" fill="#2a3756"/><path d="M848.1,170.88c-2.91-26.06-25.86-40.78-51.84-37.88S751.13,155.3,754,181.36c0,0,1.66,33.49,1.85,35.1,2.75,24.77,36.57,52.81,55.34,50.72,21.65-2.41,44.91-42.89,42.82-61.66C853.86,203.91,848.1,170.88,848.1,170.88Z" fill="#e2857e"/><path d="M757.06,187.56a7.87,7.87,0,0,0-10.39,3.5c-4,6.72,1.72,29.61,13.34,28.31S757.06,187.56,757.06,187.56Z" fill="#e2857e"/><path d="M846.87,177.55a7.87,7.87,0,0,1,10.91,1.12c5.34,5.69,4.83,29.26-6.78,30.56S846.87,177.55,846.87,177.55Z" fill="#e2857e"/><path d="M800.88,167.71a379.38,379.38,0,0,0-59.58,8.73l.57,8.49a397,397,0,0,1,119.77-8.33l-.58-8.49A380.52,380.52,0,0,0,800.88,167.71Z" fill="#202b42"/><path d="M741.87,184.93l2.59,37.55a379.51,379.51,0,0,0,60.19.39,378.3,378.3,0,0,0,59.57-8.72l-2.58-37.55a397,397,0,0,0-119.77,8.33Z" fill="#2a3756"/><path d="M850.47,184.91a3.4,3.4,0,1,1-3.62-3.07A3.35,3.35,0,0,1,850.47,184.91Z" fill="#4e5eaf"/><path d="M851.09,194a3.4,3.4,0,1,1-3.62-3.07A3.37,3.37,0,0,1,851.09,194Z" fill="#4e5eaf"/><g opacity="0.1"><path d="M801.45,176.21c-7.21.5-14.26,1.19-21.14,2l-5.66,45.63c8.74,0,17.79-.23,27-.81l5.86-47.21C805.52,176,803.49,176.06,801.45,176.21Z" fill="#fff"/><path d="M825.13,175.24c-3.75,0-7.56.16-11.41.31l-5.84,47.07q5.82-.45,11.51-1Z" fill="#fff"/></g><path d="M1032.43,595.19a63.71,63.71,0,0,1,15.49-26.92c28.63-29.56,81-25.46,116.71,9.15l-4,4.09c-33.47-32.42-82.21-36.58-108.66-9.27-12.74,13.15-18.47,31.6-16.16,52,2.34,20.57,12.6,40.58,28.89,56.35l-4,4.1c-17.23-16.69-28.09-37.93-30.58-59.8A75.94,75.94,0,0,1,1032.43,595.19Z" fill="#22cdf4"/><path d="M907,473.64a63.4,63.4,0,0,1,15.46-26.91c28.63-29.56,81-25.46,116.71,9.14,25.68,24.88,36.8,60,28.32,89.46A63.52,63.52,0,0,1,1052,572.24c-13.94,14.4-33.82,21.33-56,19.52-21.94-1.8-43.51-12-60.74-28.67C909.62,538.22,898.5,503.1,907,473.64Zm155,70.11c7.91-27.47-2.62-60.35-26.8-83.78-33.47-32.42-82.21-36.58-108.66-9.28a58,58,0,0,0-14.08,24.53c-7.91,27.46,2.62,60.35,26.8,83.78,16.29,15.78,36.62,25.39,57.25,27.08,20.41,1.67,38.67-4.66,51.41-17.81A57.81,57.81,0,0,0,1062,543.75Z" fill="#22cdf4"/><path d="M809.83,441.55l4-4.09C847.26,469.88,896,474,922.45,446.73c12.74-13.15,18.48-31.6,16.16-52-2.34-20.56-12.6-40.57-28.88-56.35l4-4.09c17.23,16.69,28.09,37.93,30.58,59.8,2.51,22.08-3.78,42.17-17.73,56.56C897.91,480.26,845.55,476.15,809.83,441.55Z" fill="#22cdf4"/><rect x="893.62" y="475.53" width="125.06" height="5.7" transform="translate(-52.72 832.28) rotate(-45.91)" fill="#22cdf4"/><rect x="912.78" y="504.06" width="143.58" height="5.7" transform="translate(-64.56 861.4) rotate(-45.91)" fill="#22cdf4"/><rect x="948.83" y="532.08" width="129.33" height="5.7" transform="translate(-75.89 890.68) rotate(-45.91)" fill="#22cdf4"/><rect x="1018.64" y="589.74" width="110.81" height="5.7" transform="translate(-98.88 951.73) rotate(-45.91)" fill="#22cdf4"/><rect x="1030.68" y="618.27" width="143.58" height="5.7" transform="translate(-110.72 980.83) rotate(-45.91)" fill="#22cdf4"/><rect x="800.2" y="395" width="143.58" height="5.7" transform="translate(-20.48 747.36) rotate(-45.91)" fill="#22cdf4"/><rect x="845.01" y="423.53" width="110.81" height="5.7" transform="translate(-32.32 776.45) rotate(-45.91)" fill="#22cdf4"/><path d="M442.49,942.57c-29.88,0-47.73-94.86-47.73-186.57s17.85-186.57,47.73-186.57S490.21,664.29,490.21,756,472.36,942.57,442.49,942.57Zm0-367.44c-20.3,0-42,72.68-42,180.87s21.73,180.87,42,180.87,42-72.67,42-180.87S462.78,575.13,442.49,575.13Z" fill="#fff"/><path d="M580.34,858.62c-33.76,0-97.24-24-161.72-61.28C339.2,751.48,266,688.59,280.91,662.72c3.58-6.19,11.56-9.33,23.72-9.33,33.76,0,97.24,24.05,161.72,61.28C545.77,760.53,619,823.42,604.06,849.29,600.48,855.48,592.5,858.62,580.34,858.62ZM304.63,659.08c-6.86,0-15.69,1.13-18.78,6.49-10.15,17.58,41.93,72.74,135.62,126.83,63.68,36.77,126,60.52,158.87,60.52,6.86,0,15.69-1.12,18.78-6.48C609.27,828.86,557.2,773.7,463.5,719.6,399.82,682.84,337.46,659.08,304.63,659.08Z" fill="#fff"/><path d="M304.63,858.62c-12.16,0-20.14-3.14-23.72-9.33C266,823.42,339.2,760.52,418.62,714.67c64.48-37.23,128-61.28,161.72-61.28,12.16,0,20.14,3.14,23.72,9.33,14.94,25.87-58.29,88.76-137.71,134.62C401.87,834.57,338.39,858.62,304.63,858.62ZM580.34,659.08c-32.83,0-95.19,23.76-158.87,60.53C327.78,773.7,275.7,828.86,285.85,846.44c3.09,5.36,11.92,6.48,18.78,6.48,32.83,0,95.19-23.75,158.87-60.52,93.7-54.09,145.77-109.25,135.62-126.83C596,660.21,587.2,659.08,580.34,659.08Z" fill="#fff"/><path d="M1214,294.63a39.19,39.19,0,1,1,36.36-24.56A39,39,0,0,1,1214,294.63Zm0-72.68a33.49,33.49,0,1,0,12.49,2.43A33.34,33.34,0,0,0,1214,222Z" fill="#fff"/><path d="M1070.15,263.1a33,33,0,1,1,30.65-20.7A33,33,0,0,1,1070.15,263.1Zm0-60.4a27.37,27.37,0,1,0,10.2,2A27.23,27.23,0,0,0,1070.17,202.7Z" fill="#fff"/><path d="M1020,147.39a17,17,0,1,1,15.79-10.66A17,17,0,0,1,1020,147.39Zm0-28.34a11.32,11.32,0,0,0-4.23,21.82,11.4,11.4,0,0,0,4.22.82,11.32,11.32,0,0,0,4.24-21.82A11.41,11.41,0,0,0,1020,119.05Z" fill="#fff"/><rect x="1033.88" y="141.48" width="5.7" height="68.92" transform="translate(9.77 402.01) rotate(-22.05)" fill="#fff"/><rect x="1135.07" y="208.31" width="5.7" height="80.89" transform="translate(684.67 1321.74) rotate(-79.43)" fill="#fff"/><path d="M632.89,264.23a43,43,0,1,1,3.76,60.7A43.05,43.05,0,0,1,632.89,264.23Zm60.19,53.17a37.31,37.31,0,1,0-52.65,3.26A37.36,37.36,0,0,0,693.08,317.4Z" fill="#22cdf4"/><path d="M512,336.5a24.22,24.22,0,1,1,2.12,34.19A24.26,24.26,0,0,1,512,336.5Zm32,28.3a18.52,18.52,0,1,0-26.15,1.62A18.54,18.54,0,0,0,544.06,364.8Z" fill="#22cdf4"/><path d="M504.53,189a31.48,31.48,0,1,1,2.75,44.43A31.51,31.51,0,0,1,504.53,189Zm42.91,37.9a25.78,25.78,0,1,0-36.39,2.26A25.79,25.79,0,0,0,547.44,226.94Z" fill="#22cdf4"/><rect x="590.18" y="199.53" width="5.7" height="92.04" transform="translate(55.12 595.74) rotate(-55.56)" fill="#22cdf4"/><rect x="480.34" y="282.14" width="93.01" height="5.7" transform="translate(237.89 809.67) rotate(-89.57)" fill="#22cdf4"/><rect x="547.76" y="327.95" width="87.02" height="5.7" transform="translate(-78.99 231.94) rotate(-20.84)" fill="#22cdf4"/><path d="M1051.47,896.69a24.22,24.22,0,1,1,24.22-24.22A24.25,24.25,0,0,1,1051.47,896.69Zm0-42.74A18.52,18.52,0,1,0,1070,872.47,18.54,18.54,0,0,0,1051.47,854Z" fill="#22cdf4"/><path d="M1138.14,837.63a38.39,38.39,0,1,1,38.39-38.39A38.43,38.43,0,0,1,1138.14,837.63Z" fill="#22cdf4"/><path d="M1276.19,922.34A26.36,26.36,0,1,1,1302.55,896,26.39,26.39,0,0,1,1276.19,922.34Z" fill="#22cdf4"/><path d="M1355.27,835a54.14,54.14,0,1,1,54.14-54.14A54.21,54.21,0,0,1,1355.27,835Zm0-102.58a48.44,48.44,0,1,0,48.44,48.44A48.49,48.49,0,0,0,1355.27,732.37Z" fill="#22cdf4"/><rect x="1062.33" y="839.24" width="57.55" height="5.7" transform="translate(-282.66 730.72) rotate(-33.03)" fill="#22cdf4"/><rect x="1209.69" y="795" width="5.7" height="110.66" transform="translate(-217.34 1236.01) rotate(-50.14)" fill="#22cdf4"/><rect x="1274.09" y="846.1" width="65.13" height="5.7" transform="translate(-97.6 1524.31) rotate(-58.7)" fill="#22cdf4"/><rect x="1596.32" y="676" width="85.6" height="9.54" fill="#fff"/><rect x="1596.32" y="694.81" width="85.6" height="9.54" fill="#fff"/><rect x="1596.32" y="713.63" width="85.6" height="9.54" fill="#fff"/><rect x="1596.32" y="732.44" width="53.8" height="9.54" fill="#fff"/><path d="M1532.89,723.63V684.12a39.5,39.5,0,1,0,35,21.19Z" fill="#fff"/><path d="M1556.75,676.6a39.3,39.3,0,0,0-19.85-5.35v39.51Z" fill="#fff"/><path d="M1559.78,681.19l-19.85,34.16,35-18.31A39.64,39.64,0,0,0,1559.78,681.19Z" fill="#fff"/><rect x="1490.79" y="601.75" width="193.94" height="16.95" fill="#fff"/><rect x="1490.79" y="631.34" width="99.58" height="11.96" fill="#fff"/><rect x="1097.15" y="992.74" width="155.34" height="16.88" fill="#fff"/><rect x="1097.15" y="1022.13" width="128.99" height="9.49" fill="#fff"/><rect x="1097.15" y="1040.86" width="65.68" height="9.49" fill="#fff"/><rect x="1097.15" y="1059.59" width="128.99" height="9.49" fill="#fff"/><rect x="1097.15" y="1078.33" width="113.16" height="9.5" fill="#fff"/><rect x="1097.15" y="1097.66" width="128.99" height="9.5" fill="#fff"/><path d="M1322.93,511.16a24.67,24.67,0,1,1,24.66-24.66A24.7,24.7,0,0,1,1322.93,511.16Zm0-44.06a19.4,19.4,0,1,0,19.38,19.4A19.42,19.42,0,0,0,1322.93,467.1Z" fill="#fff"/><path d="M1322.93,539.28a52.79,52.79,0,1,1,52.45-52.78A52.67,52.67,0,0,1,1322.93,539.28Zm0-100.29a47.51,47.51,0,1,0,47.17,47.51A47.39,47.39,0,0,0,1322.93,439Z" fill="#fff"/><path d="M1322.93,563.41a76.92,76.92,0,1,1,76.92-76.91A77,77,0,0,1,1322.93,563.41Zm0-148.56a71.65,71.65,0,1,0,71.64,71.65A71.73,71.73,0,0,0,1322.93,414.85Z" fill="#fff"/><path d="M1322.93,593.28A106.79,106.79,0,1,1,1429.71,486.5,106.91,106.91,0,0,1,1322.93,593.28Zm0-208.29A101.51,101.51,0,1,0,1424.44,486.5,101.62,101.62,0,0,0,1322.93,385Z" fill="#fff"/><path d="M1322.93,517.31a30.85,30.85,0,0,1-30.82-30.81h17.58a13.25,13.25,0,0,0,13.24,13.23Z" fill="#fff"/><path d="M1376.07,511.37l-16-7.4a41.43,41.43,0,0,0-37.19-58.82,40.81,40.81,0,0,0-19.6,5l-8.47-15.41a58.49,58.49,0,0,1,28.07-7.19c32.31,0,58.6,26.44,58.6,58.94A58.79,58.79,0,0,1,1376.07,511.37Z" fill="#fff"/><path d="M1265.28,455.38,1249.82,447a83.09,83.09,0,0,1,135.75-15.08l-13.25,11.56a65.5,65.5,0,0,0-107,11.89Z" fill="#fff"/><path d="M1322.93,599.43V581.85a95.36,95.36,0,0,0,0-190.71V373.56a112.94,112.94,0,1,1,0,225.87Z" fill="#fff"/><path d="M220.63,425a5.46,5.46,0,0,1-5.47,5.46l-209.7-.21A5.46,5.46,0,0,1,0,424.79L.14,291.44A5.45,5.45,0,0,1,5.6,286l133.64.13c4.21,0,23.56-18.55,27.76-18.54l48.32,0a5.48,5.48,0,0,1,5.47,5.47Z" fill="#1bb3cc"/><path d="M48.4,360.23a5.45,5.45,0,0,0,5.46,5.46l149.81.16a5.48,5.48,0,0,0,5.47-5.46l.08-79.43a5.46,5.46,0,0,0-5.46-5.47l-149.82-.15a5.48,5.48,0,0,0-5.47,5.46Z" fill="#fff"/><path d="M0,424.79a5.46,5.46,0,0,0,5.46,5.47l209.7.21a5.46,5.46,0,0,0,5.47-5.46l.14-133.34a5.46,5.46,0,0,0-5.47-5.47l-133.63-.14c-4.21,0-23.52-18.6-27.72-18.6l-48.33,0a5.46,5.46,0,0,0-5.46,5.46Z" fill="#22cdf4"/><path d="M309.44,489.44a5.45,5.45,0,0,1-5.47,5.45l-209.7-.21a5.46,5.46,0,0,1-5.46-5.47L89,355.87a5.46,5.46,0,0,1,5.46-5.46l133.64.13c4.21,0,23.56-18.54,27.76-18.54l48.32.05a5.46,5.46,0,0,1,5.46,5.47Z" fill="#1bb3cc"/><path d="M137.21,424.65a5.46,5.46,0,0,0,5.46,5.47l149.81.15a5.46,5.46,0,0,0,5.47-5.46l.08-79.43a5.47,5.47,0,0,0-5.46-5.47l-149.82-.15a5.48,5.48,0,0,0-5.47,5.47Z" fill="#fff"/><path d="M88.81,489.21a5.46,5.46,0,0,0,5.46,5.47l209.7.21a5.45,5.45,0,0,0,5.47-5.45l.13-133.35a5.46,5.46,0,0,0-5.46-5.47l-133.63-.13c-4.21,0-23.52-18.6-27.72-18.6l-48.33-.06A5.47,5.47,0,0,0,89,337.3Z" fill="#22cdf4"/><polygon points="309.68 835.56 246.92 764.34 69.83 764.34 69.83 768.65 245.13 768.65 303.96 835.56 309.68 835.56" fill="#fff"/><rect x="69.83" y="676.44" width="172.47" height="77.61" fill="#fff" opacity="0.4"/><rect x="89.36" y="691.17" width="61.26" height="6.47" fill="#fff"/><rect x="140.06" y="704.09" width="40.57" height="6.47" fill="#fff" opacity="0.6"/><rect x="109.36" y="704.09" width="27.7" height="6.47" fill="#fff" opacity="0.6"/><rect x="109.36" y="717" width="91.26" height="6.47" fill="#fff" opacity="0.6"/><rect x="109.36" y="729.91" width="48.36" height="6.47" fill="#fff" opacity="0.6"/><rect x="1471.51" y="296.37" width="172.46" height="77.61" fill="#fff" opacity="0.4"/><polygon points="1382.2 395.89 1465.77 287.93 1643.82 287.93 1643.82 283.62 1463.98 283.62 1377.07 395.9 1382.2 395.89" fill="#fff"/><path d="M1524.57,335.18l21.12,7.71v8.35l-30.89-11.88v-8.42L1545.69,319v8.41Z" fill="#fff"/><path d="M1600.94,339.36l-30.89,11.88v-8.35l21.12-7.71-21.12-7.77V319l30.89,11.94Z" fill="#fff"/><polygon points="1549.57 353.3 1556.75 353.3 1564.11 317.04 1556.97 317.04 1549.57 353.3" fill="#fff"/></svg>