<svg xmlns="http://www.w3.org/2000/svg" width="1684.74" height="1465.98" viewBox="0 0 1684.74 1465.98"><path d="M1040.64,1437.31c0,15.83-103.64,28.67-231.5,28.67s-231.49-12.84-231.49-28.67,103.64-28.66,231.49-28.66S1040.64,1421.49,1040.64,1437.31Z" fill="#2a3756" opacity="0.3"/><path d="M1127.75,63.07C986.68-17.87,785,70.44,563.22,224.76S66.88,466,192.09,764.85s537.29,487.87,765,407.67S1581,323.11,1127.75,63.07Z" fill="#092769" opacity="0.3"/><path d="M688.86,776.77s15.51,106.5,20.89,244.49c4.71,121-20.89,121.57,1,291.73l2.85,63,35,17s8.29-191.56,53.72-645.28C802.29,747.75,714.3,713.15,688.86,776.77Z" fill="#2f3d5b"/><path d="M906,1021.26c5.38-138,20.89-244.49,20.89-244.49-25.44-63.62-113.43-29-113.43-29C858.87,1201.47,867.15,1393,867.15,1393L902,1382.78l3-69.79C926.87,1142.83,901.27,1142.24,906,1021.26Z" fill="#2f3d5b"/><path d="M954.56,150.37A160.93,160.93,0,1,1,783.41.35,160.94,160.94,0,0,1,954.56,150.37Z" fill="#151c28"/><path d="M914.38,374.08c-27.09-27.89-70.11-46.44-85.17-50.25-18.2-7.65-27-1.49-51.08,0-28.38,1.76-80.29,31.07-97,54.8,25.57,194.91,17,286.9,17,286.9-33.62,185-26.38,383.89-26.38,383.89l271.2,2S946.34,850,919,666.67c-7.6-69.39-15.14-132.67-11.12-183.51C912.28,427.18,925.78,385.83,914.38,374.08Z" fill="#fff"/><polygon points="804.72 557.92 829.21 323.83 778.13 323.83 804.72 557.92" fill="#7d8eed"/><path d="M829.21,323.83s-30,15.86-51.08,0l4.49-55h42.09Z" fill="#28354c"/><path d="M892.8,355.75c36.87,25.51,177.92,148.83,107.87,214.17-53.85,50.24-143.09-62.4-143.09-62.4l50.27-66.36S874,366.6,892.8,355.75Z" fill="#fff"/><path d="M665.91,386.33S548.8,575,619.52,601.16,745.58,505,745.58,505l-3.44-100.13-71.08-18.49Z" fill="#fff"/><path d="M678.82,417.75s-15.45-1.47-18-8.29-6.25-34.36-6.25-34.36-8-33.88-1.62-35.91c3.79-1.21,8,20.36,9.39,28.51.1.42,1.14-.44,1.14-.44s-6.87-41.95,1-43.3c6.17-1.06,6.75,33.38,7,41l1.54-.34s-3.47-44.29,4.09-44.58,5.9,44.59,5.9,44.59l1.92.13s-1.48-38.51,4.28-38.85c6.68-.4,5.68,40.4,5.68,40.4s2.33,15.41,3.32,16.32,4.47-11,7.68-14.91,8.9-6.84,11.72-6.42-.71,7.93-5.48,16.9-5.92,18.79-12.55,25.29S682.87,418.37,678.82,417.75Z" fill="#2f3d5b"/><path d="M903.81,530.86s15.45-1.47,18-8.28S928,488.21,928,488.21s8-33.88,1.62-35.91c-3.79-1.21-8,20.37-9.39,28.51-.1.42-1.14-.44-1.14-.44s6.87-41.95-1-43.3c-6.17-1.06-6.75,33.38-7,41l-1.54-.34s3.47-44.29-4.09-44.58-5.9,44.59-5.9,44.59l-1.92.13s1.49-38.51-4.28-38.85c-6.68-.4-5.68,40.4-5.68,40.4s-2.33,15.41-3.31,16.32-4.48-11-7.69-14.91-8.9-6.84-11.71-6.42.7,7.93,5.47,16.9,5.92,18.79,12.55,25.29S899.76,531.48,903.81,530.86Z" fill="#2f3d5b"/><path d="M749.92,1369.83a33.47,33.47,0,0,0-19.38-5.95,33.81,33.81,0,0,0-17.62,4.79l-14.68,51.61v10.12c0-.05-.06.29.18.87,7.38,3.6,18.8,5.92,31.64,5.92,14.11,0,26.51-2.79,33.71-7v-9.88Z" fill="#fff"/><path d="M865.74,1369.83a33.41,33.41,0,0,1,19.37-5.95,33.87,33.87,0,0,1,17.63,4.79l14.67,51.61v10.12c0-.05.06.29-.18.87-7.38,3.6-18.8,5.92-31.64,5.92-14.11,0-26.51-2.79-33.71-7v-9.88Z" fill="#fff"/><path d="M749.84,231.31s-8.21-33,1.1-54.27c11.72-26.82,50.9-43.75,83.61-18.19,22.76,17.79,14.8,69.22,14.8,69.22l-69.24-24.2Z" fill="#151c28"/><path d="M844.47,213.05c-1.62-24.71-22.65-39.57-47.27-38s-43.52,19.11-41.9,43.82c0,0,.14,31.65.24,33.18,1.55,23.47,32.25,51.36,50,50.19,20.53-1.35,44.19-38.53,43-56.32C848.49,244.44,844.47,213.05,844.47,213.05Z" fill="#2f3d5b"/><path d="M757.9,224.89a7.43,7.43,0,0,0-10,2.86c-4,6.16.37,28,11.38,27.27S757.9,224.89,757.9,224.89Z" fill="#2f3d5b"/><path d="M843,219.29a7.41,7.41,0,0,1,10.24,1.53c4.79,5.58,3.31,27.79-7.7,28.52S843,219.29,843,219.29Z" fill="#2f3d5b"/><path d="M798.6,206.74a357.66,357.66,0,0,0-56.06,8.41l.57,8a373.47,373.47,0,0,1,112.73-8.24l-.57-8A355.67,355.67,0,0,0,798.6,206.74Z" fill="#b7b7b7"/><path d="M743.11,223.14l2.56,35.34a356.78,356.78,0,0,0,56.67.18,356.13,356.13,0,0,0,56-8.42l-2.55-35.34a373.47,373.47,0,0,0-112.73,8.24Z" fill="#dedfe2"/><path d="M845.35,222.76a3.2,3.2,0,1,1-3.41-2.88A3.17,3.17,0,0,1,845.35,222.76Z" fill="#4e5eaf"/><path d="M846,231.33a3.2,3.2,0,1,1-3.41-2.88A3.16,3.16,0,0,1,846,231.33Z" fill="#4e5eaf"/><g opacity="0.4"><path d="M799.17,214.73q-10.18.75-19.89,2l-5.18,43c8.23,0,16.74-.27,25.46-.85l5.35-44.47C803,214.48,801.1,214.59,799.17,214.73Z" fill="#fff"/><path d="M821.47,213.74c-3.54,0-7.13.17-10.75.33l-5.34,44.34c3.65-.3,7.27-.63,10.83-1Z" fill="#fff"/></g><path d="M1032.43,627.64a63.71,63.71,0,0,1,15.49-26.92c28.63-29.56,81-25.46,116.71,9.14l-4,4.1c-33.47-32.42-82.21-36.58-108.66-9.27-12.74,13.15-18.47,31.6-16.16,51.95,2.34,20.57,12.6,40.58,28.89,56.35l-4,4.1c-17.23-16.7-28.09-37.93-30.58-59.8A75.94,75.94,0,0,1,1032.43,627.64Z" fill="#22cdf4"/><path d="M907,506.09a63.4,63.4,0,0,1,15.46-26.91c28.63-29.56,81-25.46,116.71,9.14,25.68,24.88,36.8,60,28.32,89.45A63.5,63.5,0,0,1,1052,604.69c-13.94,14.39-33.82,21.33-56,19.52-21.94-1.8-43.51-12-60.74-28.67C909.62,570.67,898.5,535.55,907,506.09Zm155,70.11c7.91-27.47-2.62-60.35-26.8-83.78C1001.73,460,953,455.84,926.54,483.14a57.89,57.89,0,0,0-14.08,24.53c-7.91,27.46,2.62,60.35,26.8,83.78,16.29,15.78,36.62,25.39,57.25,27.08,20.41,1.66,38.67-4.66,51.41-17.81A57.81,57.81,0,0,0,1062,576.2Z" fill="#22cdf4"/><path d="M809.83,474l4-4.09c33.47,32.41,82.21,36.57,108.66,9.27,12.74-13.15,18.48-31.6,16.16-52-2.34-20.56-12.6-40.57-28.88-56.35l4-4.09c17.23,16.69,28.09,37.93,30.58,59.8,2.51,22.08-3.78,42.17-17.73,56.56C897.91,512.71,845.55,508.6,809.83,474Z" fill="#22cdf4"/><rect x="893.62" y="507.98" width="125.06" height="5.7" transform="translate(-76.03 842.16) rotate(-45.91)" fill="#22cdf4"/><rect x="912.78" y="536.51" width="143.58" height="5.7" transform="translate(-87.87 871.27) rotate(-45.91)" fill="#22cdf4"/><rect x="948.83" y="564.53" width="129.33" height="5.7" transform="translate(-99.19 900.55) rotate(-45.91)" fill="#22cdf4"/><rect x="1018.64" y="622.19" width="110.81" height="5.7" transform="translate(-122.18 961.61) rotate(-45.91)" fill="#22cdf4"/><rect x="1030.68" y="650.72" width="143.58" height="5.7" transform="translate(-134.03 990.69) rotate(-45.91)" fill="#22cdf4"/><rect x="800.2" y="427.45" width="143.58" height="5.7" transform="translate(-43.78 757.23) rotate(-45.91)" fill="#22cdf4"/><rect x="845.01" y="455.98" width="110.81" height="5.7" transform="translate(-55.63 786.32) rotate(-45.91)" fill="#22cdf4"/><path d="M442.49,975c-29.88,0-47.73-94.86-47.73-186.57s17.85-186.57,47.73-186.57,47.72,94.86,47.72,186.57S472.36,975,442.49,975Zm0-367.44c-20.3,0-42,72.68-42,180.87s21.73,180.87,42,180.87,42-72.67,42-180.87S462.78,607.58,442.49,607.58Z" fill="#fff"/><path d="M580.34,891.07c-33.76,0-97.24-24.05-161.72-61.28C339.2,783.93,266,721,280.91,695.17c3.58-6.2,11.56-9.34,23.72-9.34,33.76,0,97.24,24.06,161.72,61.29C545.77,793,619,855.87,604.06,881.74,600.48,887.93,592.5,891.07,580.34,891.07ZM304.63,691.53c-6.86,0-15.69,1.13-18.78,6.49-10.15,17.57,41.93,72.73,135.62,126.83,63.68,36.77,126,60.52,158.87,60.52,6.86,0,15.69-1.12,18.78-6.48,10.15-17.58-41.92-72.74-135.62-126.84C399.82,715.29,337.46,691.53,304.63,691.53Z" fill="#fff"/><path d="M304.63,891.07c-12.16,0-20.14-3.14-23.72-9.33C266,855.86,339.2,793,418.62,747.12c64.48-37.23,128-61.29,161.72-61.29,12.16,0,20.14,3.14,23.72,9.34C619,721,545.77,783.93,466.35,829.79,401.87,867,338.39,891.07,304.63,891.07ZM580.34,691.53c-32.83,0-95.19,23.76-158.87,60.53C327.78,806.15,275.7,861.31,285.85,878.89c3.09,5.36,11.92,6.48,18.78,6.48,32.83,0,95.19-23.75,158.87-60.52C557.2,770.75,609.27,715.59,599.12,698,596,692.66,587.2,691.53,580.34,691.53Z" fill="#fff"/><path d="M1214,327.08a39.19,39.19,0,1,1,36.36-24.56A39,39,0,0,1,1214,327.08Zm0-72.68a33.49,33.49,0,1,0,12.49,2.43A33.34,33.34,0,0,0,1214,254.4Z" fill="#fff"/><path d="M1070.15,295.55a33,33,0,1,1,30.65-20.71A33,33,0,0,1,1070.15,295.55Zm0-60.4a27.37,27.37,0,1,0,10.2,2A27.23,27.23,0,0,0,1070.17,235.15Z" fill="#fff"/><path d="M1020,179.84a17,17,0,1,1,15.79-10.66A17,17,0,0,1,1020,179.84Zm0-28.34a11.32,11.32,0,0,0-4.23,21.82,11.4,11.4,0,0,0,4.22.82,11.32,11.32,0,0,0,4.24-21.82A11.41,11.41,0,0,0,1020,151.5Z" fill="#fff"/><rect x="1033.88" y="173.93" width="5.7" height="68.92" transform="translate(-2.41 404.38) rotate(-22.05)" fill="#fff"/><rect x="1135.07" y="240.76" width="5.7" height="80.89" transform="translate(652.77 1348.23) rotate(-79.43)" fill="#fff"/><path d="M632.89,296.68a43,43,0,1,1,3.76,60.7A43.05,43.05,0,0,1,632.89,296.68Zm60.19,53.16a37.3,37.3,0,1,0-52.65,3.27A37.34,37.34,0,0,0,693.08,349.84Z" fill="#22cdf4"/><path d="M512,369a24.22,24.22,0,1,1,2.12,34.19A24.26,24.26,0,0,1,512,369Zm32,28.3a18.52,18.52,0,1,0-26.15,1.62A18.54,18.54,0,0,0,544.06,397.25Z" fill="#22cdf4"/><path d="M504.53,221.49a31.47,31.47,0,1,1,2.75,44.43A31.51,31.51,0,0,1,504.53,221.49Zm42.91,37.9a25.78,25.78,0,1,0-36.39,2.26A25.79,25.79,0,0,0,547.44,259.39Z" fill="#22cdf4"/><rect x="590.18" y="231.98" width="5.7" height="92.04" transform="translate(28.36 609.84) rotate(-55.56)" fill="#22cdf4"/><rect x="480.34" y="314.59" width="93.01" height="5.7" transform="translate(205.53 841.93) rotate(-89.58)" fill="#22cdf4"/><rect x="547.76" y="360.4" width="87.02" height="5.7" transform="translate(-90.54 234.07) rotate(-20.84)" fill="#22cdf4"/><path d="M1051.47,929.14a24.22,24.22,0,1,1,24.22-24.22A24.25,24.25,0,0,1,1051.47,929.14Zm0-42.74A18.52,18.52,0,1,0,1070,904.92,18.54,18.54,0,0,0,1051.47,886.4Z" fill="#22cdf4"/><path d="M1138.14,870.08a38.39,38.39,0,1,1,38.39-38.39A38.43,38.43,0,0,1,1138.14,870.08Z" fill="#22cdf4"/><path d="M1276.19,954.79a26.36,26.36,0,1,1,26.36-26.36A26.39,26.39,0,0,1,1276.19,954.79Z" fill="#22cdf4"/><path d="M1355.27,867.4a54.14,54.14,0,1,1,54.14-54.14A54.21,54.21,0,0,1,1355.27,867.4Zm0-102.58a48.44,48.44,0,1,0,48.44,48.44A48.49,48.49,0,0,0,1355.27,764.82Z" fill="#22cdf4"/><rect x="1062.33" y="871.69" width="57.55" height="5.7" transform="translate(-300.34 735.98) rotate(-33.03)" fill="#22cdf4"/><rect x="1209.69" y="827.44" width="5.7" height="110.66" transform="translate(-242.25 1247.65) rotate(-50.14)" fill="#22cdf4"/><rect x="1274.09" y="878.54" width="65.13" height="5.7" transform="translate(-125.24 1540.09) rotate(-58.7)" fill="#22cdf4"/><rect x="1596.32" y="708.45" width="85.6" height="9.54" fill="#fff"/><rect x="1596.32" y="727.26" width="85.6" height="9.54" fill="#fff"/><rect x="1596.32" y="746.08" width="85.6" height="9.54" fill="#fff"/><rect x="1596.32" y="764.89" width="53.8" height="9.54" fill="#fff"/><path d="M1532.89,756.08V716.57a39.5,39.5,0,1,0,35,21.19Z" fill="#fff"/><path d="M1556.75,709.05a39.31,39.31,0,0,0-19.85-5.36v39.52Z" fill="#fff"/><path d="M1559.78,713.64l-19.85,34.16,35-18.31A39.57,39.57,0,0,0,1559.78,713.64Z" fill="#fff"/><rect x="1490.79" y="634.2" width="193.94" height="16.95" fill="#fff"/><rect x="1490.79" y="663.78" width="99.58" height="11.96" fill="#fff"/><rect x="1097.15" y="1025.19" width="155.34" height="16.88" fill="#fff"/><rect x="1097.15" y="1054.58" width="128.99" height="9.49" fill="#fff"/><rect x="1097.15" y="1073.31" width="65.68" height="9.49" fill="#fff"/><rect x="1097.15" y="1092.04" width="128.99" height="9.49" fill="#fff"/><rect x="1097.15" y="1110.77" width="113.16" height="9.5" fill="#fff"/><rect x="1097.15" y="1130.11" width="128.99" height="9.5" fill="#fff"/><path d="M1322.93,543.61A24.67,24.67,0,1,1,1347.59,519,24.7,24.7,0,0,1,1322.93,543.61Zm0-44.06a19.4,19.4,0,1,0,19.38,19.4A19.42,19.42,0,0,0,1322.93,499.55Z" fill="#fff"/><path d="M1322.93,571.73A52.79,52.79,0,1,1,1375.38,519,52.67,52.67,0,0,1,1322.93,571.73Zm0-100.29A47.51,47.51,0,1,0,1370.1,519,47.39,47.39,0,0,0,1322.93,471.44Z" fill="#fff"/><path d="M1322.93,595.86A76.92,76.92,0,1,1,1399.85,519,77,77,0,0,1,1322.93,595.86Zm0-148.56A71.65,71.65,0,1,0,1394.57,519,71.73,71.73,0,0,0,1322.93,447.3Z" fill="#fff"/><path d="M1322.93,625.73A106.79,106.79,0,1,1,1429.71,519,106.91,106.91,0,0,1,1322.93,625.73Zm0-208.29A101.51,101.51,0,1,0,1424.44,519,101.62,101.62,0,0,0,1322.93,417.44Z" fill="#fff"/><path d="M1322.93,549.76A30.85,30.85,0,0,1,1292.11,519h17.58a13.25,13.25,0,0,0,13.24,13.23Z" fill="#fff"/><path d="M1376.07,543.82l-16-7.4a41.43,41.43,0,0,0-37.19-58.83,40.82,40.82,0,0,0-19.6,5l-8.47-15.41a58.49,58.49,0,0,1,28.07-7.19c32.31,0,58.6,26.44,58.6,58.94A58.79,58.79,0,0,1,1376.07,543.82Z" fill="#fff"/><path d="M1265.28,487.83l-15.46-8.37a83.09,83.09,0,0,1,135.75-15.08l-13.25,11.55a65.51,65.51,0,0,0-107,11.9Z" fill="#fff"/><path d="M1322.93,631.88V614.3a95.36,95.36,0,0,0,0-190.71V406a112.94,112.94,0,1,1,0,225.87Z" fill="#fff"/><path d="M220.63,457.46a5.46,5.46,0,0,1-5.47,5.46l-209.7-.21A5.46,5.46,0,0,1,0,457.23L.14,323.89a5.45,5.45,0,0,1,5.46-5.45l133.64.13c4.21,0,23.56-18.55,27.76-18.55l48.32.05a5.47,5.47,0,0,1,5.47,5.47Z" fill="#1bb3cc"/><path d="M48.4,392.68a5.45,5.45,0,0,0,5.46,5.46l149.81.16a5.48,5.48,0,0,0,5.47-5.46l.08-79.43a5.46,5.46,0,0,0-5.46-5.47l-149.82-.15a5.48,5.48,0,0,0-5.47,5.46Z" fill="#fff"/><path d="M0,457.23a5.46,5.46,0,0,0,5.46,5.48l209.7.21a5.46,5.46,0,0,0,5.47-5.46l.14-133.34a5.46,5.46,0,0,0-5.47-5.47l-133.63-.14c-4.21,0-23.52-18.6-27.72-18.6l-48.33-.05a5.46,5.46,0,0,0-5.46,5.46Z" fill="#22cdf4"/><path d="M309.44,521.89a5.46,5.46,0,0,1-5.47,5.45l-209.7-.21a5.46,5.46,0,0,1-5.46-5.47L89,388.32a5.46,5.46,0,0,1,5.46-5.46l133.64.13c4.21,0,23.56-18.54,27.76-18.54l48.32.05a5.46,5.46,0,0,1,5.46,5.47Z" fill="#1bb3cc"/><path d="M137.21,457.1a5.46,5.46,0,0,0,5.46,5.47l149.81.15a5.46,5.46,0,0,0,5.47-5.46l.08-79.43a5.46,5.46,0,0,0-5.46-5.47l-149.82-.15a5.48,5.48,0,0,0-5.47,5.46Z" fill="#fff"/><path d="M88.81,521.66a5.46,5.46,0,0,0,5.46,5.47l209.7.21a5.46,5.46,0,0,0,5.47-5.45l.13-133.35a5.46,5.46,0,0,0-5.46-5.47l-133.63-.13c-4.21,0-23.52-18.6-27.72-18.6l-48.33-.06A5.47,5.47,0,0,0,89,369.74Z" fill="#22cdf4"/><polygon points="309.68 868.01 246.92 796.79 69.83 796.79 69.83 801.1 245.13 801.1 303.96 868.01 309.68 868.01" fill="#fff"/><rect x="69.83" y="708.89" width="172.47" height="77.61" fill="#fff" opacity="0.4"/><rect x="89.36" y="723.62" width="61.26" height="6.47" fill="#fff"/><rect x="140.06" y="736.53" width="40.57" height="6.47" fill="#fff" opacity="0.6"/><rect x="109.36" y="736.53" width="27.7" height="6.47" fill="#fff" opacity="0.6"/><rect x="109.36" y="749.44" width="91.26" height="6.47" fill="#fff" opacity="0.6"/><rect x="109.36" y="762.35" width="48.36" height="6.47" fill="#fff" opacity="0.6"/><rect x="1471.51" y="328.82" width="172.46" height="77.61" fill="#fff" opacity="0.4"/><polygon points="1382.2 428.34 1465.77 320.38 1643.82 320.38 1643.82 316.07 1463.98 316.07 1377.07 428.35 1382.2 428.34" fill="#fff"/><path d="M1524.57,367.63l21.12,7.71v8.35l-30.89-11.88v-8.42l30.89-11.94v8.41Z" fill="#fff"/><path d="M1600.94,371.81l-30.89,11.88v-8.35l21.12-7.71-21.12-7.77v-8.41l30.89,11.94Z" fill="#fff"/><polygon points="1549.57 385.75 1556.75 385.75 1564.11 349.49 1556.97 349.49 1549.57 385.75" fill="#fff"/></svg>