<svg xmlns="http://www.w3.org/2000/svg" xmlns:xlink="http://www.w3.org/1999/xlink" width="277.26" height="307.9" viewBox="0 0 277.26 307.9"><defs><filter id="b" x="175.12" y="-8345.95" width="102.15" height="32766" filterUnits="userSpaceOnUse" color-interpolation-filters="sRGB"><feFlood flood-color="#fff" result="bg"/><feBlend in="SourceGraphic" in2="bg"/></filter><mask id="a" x="175.12" y="-8345.95" width="102.15" height="32766" maskUnits="userSpaceOnUse"><g filter="url(#b)"/></mask><linearGradient id="c" x1="100.82" y1="-205.27" x2="275.78" y2="-205.27" gradientUnits="userSpaceOnUse"><stop offset="0" stop-color="#1a1a1a"/><stop offset="0.12" stop-color="#464646"/><stop offset="0.29" stop-color="#7d7d7d"/><stop offset="0.46" stop-color="#acacac"/><stop offset="0.62" stop-color="#d0d0d0"/><stop offset="0.76" stop-color="#eaeaea"/><stop offset="0.9" stop-color="#fafafa"/><stop offset="1" stop-color="#fff"/></linearGradient><filter id="e" x="138.87" y="-8345.95" width="24.92" height="32766" filterUnits="userSpaceOnUse" color-interpolation-filters="sRGB"><feFlood flood-color="#fff" result="bg"/><feBlend in="SourceGraphic" in2="bg"/></filter><mask id="d" x="138.87" y="-8345.95" width="24.92" height="32766" maskUnits="userSpaceOnUse"><g filter="url(#e)"/></mask><radialGradient id="f" cx="151.34" cy="-312.88" r="10.62" gradientTransform="translate(0 0.12) scale(1 1.24)" gradientUnits="userSpaceOnUse"><stop offset="0" stop-color="#fff"/><stop offset="0.06" stop-color="#d9d9d9"/><stop offset="0.14" stop-color="#acacac"/><stop offset="0.23" stop-color="#858585"/><stop offset="0.32" stop-color="#646464"/><stop offset="0.42" stop-color="#494949"/><stop offset="0.52" stop-color="#343434"/><stop offset="0.64" stop-color="#252525"/><stop offset="0.78" stop-color="#1d1d1d"/><stop offset="1" stop-color="#1a1a1a"/></radialGradient><filter id="h" x="146.46" y="-8345.95" width="9.76" height="32766" filterUnits="userSpaceOnUse" color-interpolation-filters="sRGB"><feFlood flood-color="#fff" result="bg"/><feBlend in="SourceGraphic" in2="bg"/></filter><mask id="g" x="146.46" y="-8345.95" width="9.76" height="32766" maskUnits="userSpaceOnUse"><g filter="url(#h)"/></mask><radialGradient id="i" cx="151.34" cy="-312.88" r="4.16" xlink:href="#f"/><filter id="k" x="139.39" y="-8345.95" width="23.88" height="32766" filterUnits="userSpaceOnUse" color-interpolation-filters="sRGB"><feFlood flood-color="#fff" result="bg"/><feBlend in="SourceGraphic" in2="bg"/></filter><mask id="j" x="139.39" y="-8345.95" width="23.88" height="32766" maskUnits="userSpaceOnUse"><g filter="url(#k)"/></mask><radialGradient id="l" cx="151.34" cy="-312.88" r="10.17" gradientTransform="translate(0 0.12) scale(1 1.24)" gradientUnits="userSpaceOnUse"><stop offset="0" stop-color="#fff"/><stop offset="0.31" stop-color="#afafaf"/><stop offset="0.64" stop-color="#606060"/><stop offset="0.88" stop-color="#2d2d2d"/><stop offset="1" stop-color="#1a1a1a"/></radialGradient><filter id="n" x="18.17" y="-8345.95" width="119.99" height="32766" filterUnits="userSpaceOnUse" color-interpolation-filters="sRGB"><feFlood flood-color="#fff" result="bg"/><feBlend in="SourceGraphic" in2="bg"/></filter><mask id="m" x="18.17" y="-8345.95" width="119.99" height="32766" maskUnits="userSpaceOnUse"><g filter="url(#n)"/></mask><linearGradient id="o" x1="78.16" y1="-486.57" x2="78.16" y2="-204.26" gradientUnits="userSpaceOnUse"><stop offset="0" stop-color="#1a1a1a"/><stop offset="0.14" stop-color="#1e1e1e"/><stop offset="0.27" stop-color="#292929"/><stop offset="0.4" stop-color="#3d3d3d"/><stop offset="0.53" stop-color="#585858"/><stop offset="0.66" stop-color="#7b7b7b"/><stop offset="0.79" stop-color="#a6a6a6"/><stop offset="0.91" stop-color="#d8d8d8"/><stop offset="1" stop-color="#fff"/></linearGradient><filter id="q" x="175.12" y="-210.41" width="102.15" height="510.28" filterUnits="userSpaceOnUse" color-interpolation-filters="sRGB"><feFlood flood-color="#fff" result="bg"/><feBlend in="SourceGraphic" in2="bg"/></filter><mask id="p" x="175.12" y="-210.41" width="102.15" height="510.28" maskUnits="userSpaceOnUse"><g mask="url(#a)" filter="url(#q)"><path d="M265.08-210.41c-49.79,0-90,2.32-90,5.14s40.17,5.11,90,5.14c7.84-1.58,12.18-3.31,12.18-5.14S272.92-208.83,265.08-210.41Z" fill="url(#c)" style="mix-blend-mode:multiply"/></g></mask><linearGradient id="r" x1="100.82" y1="294.73" x2="275.78" y2="294.73" gradientUnits="userSpaceOnUse"><stop offset="0" stop-color="#44c9f2"/><stop offset="0.12" stop-color="#41acd6"/><stop offset="0.32" stop-color="#3c7ea9"/><stop offset="0.52" stop-color="#385a86"/><stop offset="0.7" stop-color="#35406d"/><stop offset="0.87" stop-color="#34305e"/><stop offset="1" stop-color="#332b59"/></linearGradient><linearGradient id="s" x1="204.33" y1="56.64" x2="204.33" y2="96.87" xlink:href="#r"/><filter id="u" x="138.87" y="-403.82" width="24.92" height="530.94" filterUnits="userSpaceOnUse" color-interpolation-filters="sRGB"><feFlood flood-color="#fff" result="bg"/><feBlend in="SourceGraphic" in2="bg"/></filter><mask id="t" x="138.87" y="-403.82" width="24.92" height="530.94" maskUnits="userSpaceOnUse"><g mask="url(#d)" filter="url(#u)"><ellipse cx="151.34" cy="-388.34" rx="12.46" ry="15.47" fill="url(#f)" style="mix-blend-mode:multiply"/></g></mask><radialGradient id="v" cx="151.34" cy="89.83" r="10.62" gradientTransform="translate(0 0.12) scale(1 1.24)" gradientUnits="userSpaceOnUse"><stop offset="0" stop-color="#fff"/><stop offset="0.13" stop-color="#fff"/><stop offset="1" stop-color="#fff"/></radialGradient><filter id="x" x="146.46" y="-394.4" width="9.76" height="512.11" filterUnits="userSpaceOnUse" color-interpolation-filters="sRGB"><feFlood flood-color="#fff" result="bg"/><feBlend in="SourceGraphic" in2="bg"/></filter><mask id="w" x="146.46" y="-394.4" width="9.76" height="512.11" maskUnits="userSpaceOnUse"><g mask="url(#g)" filter="url(#x)"><path d="M156.21-388.34c0,3.34-2.18,6-4.87,6s-4.88-2.71-4.88-6,2.18-6.06,4.88-6.06S156.21-391.69,156.21-388.34Z" fill="url(#i)" style="mix-blend-mode:multiply"/></g></mask><radialGradient id="y" cx="151.34" cy="89.83" r="4.16" xlink:href="#v"/><filter id="aa" x="139.39" y="-403.17" width="23.88" height="529.65" filterUnits="userSpaceOnUse" color-interpolation-filters="sRGB"><feFlood flood-color="#fff" result="bg"/><feBlend in="SourceGraphic" in2="bg"/></filter><mask id="z" x="139.39" y="-403.17" width="23.88" height="529.65" maskUnits="userSpaceOnUse"><g mask="url(#j)" filter="url(#aa)"><ellipse cx="151.34" cy="-388.34" rx="11.94" ry="14.83" fill="url(#l)" style="mix-blend-mode:multiply"/></g></mask><radialGradient id="ab" cx="151.34" cy="89.83" r="10.17" gradientTransform="translate(0 0.12) scale(1 1.24)" gradientUnits="userSpaceOnUse"><stop offset="0" stop-color="#fff"/><stop offset="1" stop-color="#fff"/></radialGradient><linearGradient id="ac" x1="74.16" y1="161.29" x2="74.16" y2="130.75" gradientUnits="userSpaceOnUse"><stop offset="0" stop-color="#fff"/><stop offset="0.12" stop-color="#ecf6fe"/><stop offset="0.37" stop-color="#cae7fd"/><stop offset="0.61" stop-color="#b1dbfd"/><stop offset="0.82" stop-color="#a2d4fc"/><stop offset="1" stop-color="#9dd2fc"/></linearGradient><filter id="ae" x="18.17" y="-480.65" width="119.99" height="773.15" filterUnits="userSpaceOnUse" color-interpolation-filters="sRGB"><feFlood flood-color="#fff" result="bg"/><feBlend in="SourceGraphic" in2="bg"/></filter><mask id="ad" x="18.17" y="-480.65" width="119.99" height="773.15" maskUnits="userSpaceOnUse"><g mask="url(#m)" filter="url(#ae)"><path d="M137.87-472.45c-.64-4.55-27.12-8.2-59.71-8.2s-59.07,3.65-59.7,8.2l-.29,265h120Z" fill="url(#o)" style="mix-blend-mode:multiply"/></g></mask><linearGradient id="af" x1="78.16" y1="13.43" x2="78.16" y2="295.74" gradientUnits="userSpaceOnUse"><stop offset="0"/><stop offset="0.02" stop-color="#06080a"/><stop offset="0.18" stop-color="#2d3d49"/><stop offset="0.34" stop-color="#4f6a7f"/><stop offset="0.49" stop-color="#6b8fac"/><stop offset="0.64" stop-color="#81accf"/><stop offset="0.77" stop-color="#90c1e8"/><stop offset="0.9" stop-color="#9acef7"/><stop offset="1" stop-color="#9dd2fc"/></linearGradient><linearGradient id="ag" x1="103.16" y1="238.79" x2="103.16" y2="235.28" xlink:href="#ac"/><linearGradient id="ah" x1="77.98" y1="239.27" x2="77.98" y2="237.37" xlink:href="#ac"/><linearGradient id="ai" x1="64.14" y1="239.21" x2="64.14" y2="237.3" xlink:href="#ac"/><linearGradient id="aj" x1="54.39" y1="238.89" x2="54.39" y2="236.78" xlink:href="#ac"/><linearGradient id="ak" x1="74.16" y1="238.31" x2="74.16" y2="208.73" xlink:href="#ac"/><linearGradient id="al" x1="74.16" y1="226.9" x2="74.16" y2="196.36" xlink:href="#ac"/></defs><g style="isolation:isolate"><ellipse cx="146.12" cy="294.73" rx="131.14" ry="13.17" fill="#9dd2fc"/><g mask="url(#p)"><path d="M265.08,289.59c-49.79,0-90,2.32-90,5.14s40.17,5.11,90,5.14c7.84-1.58,12.18-3.31,12.18-5.14S272.92,291.17,265.08,289.59Z" fill="url(#r)"/></g><path d="M179.23,251.28s11.7-3.94,29-4.37,28.68,3.73,28.68,3.73l-13.14-32-37.9,7.66Z" fill="#9dd2fc"/><path d="M204.13,57c-8.82,5.53-8.94,14.37-9.26,20.91s.48,16.93,1.92,18.52,4.79,6.55,11.49,6.71a25.36,25.36,0,0,0,17.88-7.5c4.47-4.48,7.19-23.47,4.79-32.1S213.55,51.07,204.13,57Z" fill="#fcb072"/><path d="M221.82,99.09a25.12,25.12,0,0,1-11.46,4,32.91,32.91,0,0,1,.16,5.82,5,5,0,0,1-1.12,1.91,4.54,4.54,0,0,0,4.95,4.47c5,0,9.1-5.27,9.1-5.27l-1.76-1.11Z" fill="#fcb072"/><path d="M233.19,134.41c2.71-8.46.32-21.07.32-21.07L223.45,110s-4.15,5.27-9.1,5.27a4.54,4.54,0,0,1-4.95-4.47,4.17,4.17,0,0,0,.33-.39l-8.63,2.47s-8.62,14-9.1,22.83,3.51,15.48,4,18.36-2.08,10.54-2.08,10.54,1,4.79,11.5,4,16.12-2.72,16.12-2.72a21.22,21.22,0,0,1-.16-7.18C222,155.17,230.47,142.87,233.19,134.41Z" fill="#332b59"/><path d="M221.35,165.92a73.89,73.89,0,0,1-15.94,2.66c-10.54.8-11.5-4-11.5-4s-8.52,16.61-9.42,30.49c-1.11,17.24,4.15,38.48,4.15,38.48s5.43,3.67,18.68,3,19.48-3.35,19.48-3.35,4-27,2.24-42C227.77,180.39,223.57,170.54,221.35,165.92Z" fill="#4b4f87"/><path d="M204.77,254.31c-.48-8.46-3.51-12.61-3.51-12.61l-.23-5.14c-8.05-.48-11.81-2.64-12.32-3,.91,5,1.92,10.6,2,11.29a104.57,104.57,0,0,0,1.12,17.4c1.59,11.5,2.39,26.83,2.39,26.83s-16.76,5.58-16,5.74,21.07.48,21.23-.16-2.71-5.43-2.71-5.43S205.54,267.88,204.77,254.31Z" fill="#fcb072"/><path d="M233.67,294.38a39.6,39.6,0,0,0-5.27-4.15S231.91,261,230,251.6a109,109,0,0,0-4.16-15.33l-.2-2.61a59.39,59.39,0,0,1-12.08,2.43l.79,2.73a133.11,133.11,0,0,0,3,20c2.4,9.9,8.94,31.61,8.94,31.61a15.4,15.4,0,0,0,.16,3.67c.32.8,7.35,3.2,8,2.72S235.1,296,233.67,294.38Z" fill="#fcb072"/><path d="M221.69,108.87a147.25,147.25,0,0,0-8.3,29.85c-2.87,17.08-4.31,27.14-2.07,48.38S221.53,254,221.53,254s3,.8,8.47-.32,6.86-3,6.86-3-3.67-53-5.59-63.86A143.57,143.57,0,0,0,224.73,164s8.3-21.08,9.74-30.66a81.09,81.09,0,0,0,0-19.95Z" fill="#b8f7fe"/><path d="M210,109.66s-5.11,10.54-8.78,28.58-8.14,50.45-8.78,63.38-.8,52-.8,52a21.94,21.94,0,0,1-12.45-2.39s2.23-48.22,6.06-64.18,8.46-23.31,9.1-27-4-16.29-3.83-23.47,9.1-23.15,9.1-23.15Z" fill="#b8f7fe"/><path d="M185.71,292c-4,1.39-7.83,2.77-7.44,2.85.8.16,21.07.48,21.23-.16.09-.36-.8-2.07-1.58-3.47-4.19.62-12.47,1.84-12.95,1.72C184.73,292.89,185.13,292.49,185.71,292Z" fill="#1f1633"/><path d="M233,293.76a1.07,1.07,0,0,1-1,.62c-1.18,0-3.89-1.58-5.78-2.79a9.06,9.06,0,0,0,.19,2.47c.32.8,7.35,3.2,8,2.72s.63-.8-.8-2.4C233.49,294.19,233.28,294,233,293.76Z" fill="#1f1633"/><path d="M214.51,188.53s-3-35.76-.16-40.71c1.31-2.26,36.88.16,38.32,1.12s2.71,7.82,2.39,17.72c-.3,9.42-2.07,21.39-2.07,21.39Z" fill="#561c39"/><path d="M214.51,188.53l2.55-.16s.8-39-2.07-40.07C212.78,147.44,214.51,188.53,214.51,188.53Z" fill="#fff"/><path d="M191.74,145.65a42.26,42.26,0,0,1-1.18-9c.16-7.19,9.1-23.15,9.1-23.15s-3.72,1.33-4.58,2.39S180.61,140,180.61,140s-15-9.48-17.14-9-7.66,8.83-6.81,11,24.91,13.84,27.36,14C185.36,156,188.86,150.58,191.74,145.65Z" fill="#b8f7fe"/><path d="M156.61,127.73c.76.06,1.56.14,2.22.25-.76-2.94-3.31-12-3.92-12.42s-.59,2.14-.3,4C154.84,121.15,156.15,126,156.61,127.73Z" fill="#fcb072"/><path d="M161.47,133s-.1-9.07-1.08-9.55-8.73-1.08-8.1-.24,4.9,3,4.9,3-3.7,1.41-3,4.8a6.47,6.47,0,0,0,2.78,3.74l.37,2.41,2.77.64a2.29,2.29,0,0,0,2.23-.85,5.09,5.09,0,0,0,.95-2.88Z" fill="#fcb072"/><path d="M156.93,134.77a8.71,8.71,0,0,1-.9-.73h0c-2.76-2.51-2.39-6.35,1.16-7.81a41,41,0,0,1-3.93-2.23c-.22-.15-1.44-.86-.75-1.07a8.29,8.29,0,0,1,2.63-.12h0c-2-1.25-3.7-1.44-5,.64a16.17,16.17,0,0,0-2.24,4.79c-.47,1.77-.35,2.41.85,3.72a4.35,4.35,0,0,0,3.69,1.74,18,18,0,0,0,1.5,2.19c.95,1.16,1.84,1.19,3.31,1.13Z" fill="#fcb072"/><path d="M221.8,107.59l-.11,1.28s-4,10.21-5.53,15.64a65.63,65.63,0,0,0-1.92,9.69L230.74,112Z" fill="#9dd2fc"/><path d="M210.52,107.91v1s-3.41,8.51-5,13.3-3.3,11.28-3.3,11.28-1.18-10.53-1-14.37a67.12,67.12,0,0,1,.74-6.91Z" fill="#9dd2fc"/><path d="M227.6,89.1c-.48-3.37,2.76-7.52,5.87-8.21a4.84,4.84,0,0,1,4.25,1c1.61,1.44,1.81,4,1.13,6a7.08,7.08,0,0,1-1.22,2.28c-2.25,2.69-8.58,3.88-9.89-.4A4.54,4.54,0,0,1,227.6,89.1Z" fill="#fcb072"/><path d="M238.12,82.3c-2,1.33-4,2.64-6,3.89a.47.47,0,0,0-.22.34.46.46,0,0,0,.13.39,1.49,1.49,0,0,1-.09,1.87,3.44,3.44,0,0,1-2.08,1.1,4.86,4.86,0,0,1-2,0,4,4,0,0,0,.55,1l.23,0a7.12,7.12,0,0,0,1.45-.17,4.44,4.44,0,0,0,2.62-1.44,2.53,2.53,0,0,0,.36-2.65c1.89-1.18,3.77-2.4,5.63-3.64A4.27,4.27,0,0,0,238.12,82.3Z" fill="#d37a4f"/><path d="M232.71,51.71c-6.52-2.25-16.44-4.47-25.86-1.92s-15.33,11-15.33,15.49,4,6.39,5.75,6.71,1.11-5.59,1.11-5.59a14.77,14.77,0,0,0,10.7,5.11c6.87.16,5.59-5.11,5.59-5.11s-.32,5.59,5,6.54,7.66-2.55,7.66-2.55-3.83,12.93-2.07,15.33,7-3,7-3a22.42,22.42,0,0,0,10.06-15.32C244,56.66,236.44,53,232.71,51.71Z" fill="#1f1633"/><path d="M240.85,103.28c-.8-4.79,4.47-21.71,5-30.5s-2.23-17.88-6.23-20.43a6.25,6.25,0,0,0-5.78-.23c3.93,1.59,10.1,5.49,8.5,15.24a22.58,22.58,0,0,1-7.49,13.42,4.55,4.55,0,0,1,2.92,1.1c1.61,1.44,1.81,4,1.13,6a7.08,7.08,0,0,1-1.22,2.28c-1.91,2.29-6.78,3.48-9,1.15a12.91,12.91,0,0,1-2.48,4.31,42.53,42.53,0,0,1-4.34,3.47l-.13,9.78.11-1.28,8.94,4.36-.05.07,3.78,1.32s0,.11,0,.26c.44.25.91.54,1.4.85a9.79,9.79,0,0,1,1.86,2.86c4.87-3.14,1.65-6.37,1.65-6.37s5.91,3,8.31,1.6S241.65,108.07,240.85,103.28Z" fill="#1f1633"/><path d="M186.8,85.7c.32,2.46,1.2,4.69,3.49,5.5,1.68.59,21.45,1.82,30.13.74a14.11,14.11,0,0,0,2.34-.32c1.64-.47,4-.61,5.17-2,1.29-1.55,1.29-4,1.52-5.89a26.13,26.13,0,0,0-.31-7.55c-.27-1.72-1-4-3-4.47-1-.21-33.63-2.45-37.25-.32-2.4,1.42-2.27,5.8-2.26,8.17A48.23,48.23,0,0,0,186.8,85.7Z" fill="#1f1633"/><path d="M189.05,71.61c-2.06,1.59-1.89,6.06-1.91,8.35,0,2.78-.31,6.07,1.07,8.6,1,1.8,2.41,2,4.27,2.31A88,88,0,0,0,206,91.7c3.2,0,6.41,0,9.61-.27,1.08-.07,3.83.12,4.69-.76,1.33-1.39,2-16.08.1-18C219.15,71.49,190.69,70.35,189.05,71.61Z" fill="url(#s)"/><path d="M205.54,95.35a8.8,8.8,0,0,1-2-.22A6.48,6.48,0,0,1,201.11,94a.33.33,0,0,1-.07-.45.32.32,0,0,1,.45-.06,6,6,0,0,0,2.2,1,11.17,11.17,0,0,0,7.23-1.15.31.31,0,0,1,.42.15.33.33,0,0,1-.16.43A13.6,13.6,0,0,1,205.54,95.35Z" fill="#d37a4f"/><path d="M229.46,83.65a7.63,7.63,0,0,1,4-2.76,4.84,4.84,0,0,1,4.25,1,3.56,3.56,0,0,1,.42.45,5.8,5.8,0,0,0-.27-2.52s1.81-3.19,1.6-3.51-7.32,0-10.3.06A26.12,26.12,0,0,1,229.46,83.65Z" fill="#1f1633"/><path d="M229.68,114.13a16,16,0,0,0-3.36,10.7c.16,6.87,12.94,30,12.94,30s-5.43,16.12-7.19,20.59a49.45,49.45,0,0,1-4.47,8.46,22.26,22.26,0,0,0,5.11,4.15,32.88,32.88,0,0,0,6.23,2.72s12.93-26,12.93-33.05-13.41-41.67-16-43.27S231.59,111.74,229.68,114.13Z" fill="#b8f7fe"/><path d="M232.71,188.05a22.06,22.06,0,0,1-3.92-2.94c-.66-.12-4-.68-4.68-.17s-3.48,2.82-4,3.95-.48,4.43-.1,4.9a3.12,3.12,0,0,0,1.51.66,10.68,10.68,0,0,0,1.6,1.7c.75.56,7-.38,7.63-1.32.39-.57,2-3.71,3.14-6.11C233.53,188.51,233.12,188.29,232.71,188.05Z" fill="#fcb072"/><path d="M189.83,73.71C188,75.18,188.5,85.53,189.39,86S193,80,193,80s20.74-2,23-4.69S193,71.26,189.83,73.71Z" fill="#fff" opacity="0.2"/><path d="M193.07,75.27c0,1.11-.56,2-1.26,2s-1.25-.9-1.25-2,.56-2,1.25-2S193.07,74.17,193.07,75.27Z" fill="#fff"/><path d="M196.41,75.27c0,1.11-.56,2-1.25,2s-1.25-.9-1.25-2,.56-2,1.25-2S196.41,74.17,196.41,75.27Z" fill="#fff"/><path d="M157.91,111.53c0,4.52-2.93,8.18-6.55,8.18s-6.55-3.66-6.55-8.18,2.93-8.19,6.55-8.19S157.91,107,157.91,111.53Z" fill="#44c9f2"/><path d="M155.43,111.53c0,2.8-1.82,5.08-4.07,5.08s-4.07-2.28-4.07-5.08,1.82-5.08,4.07-5.08S155.43,108.72,155.43,111.53Z" fill="#79f2ef"/><g mask="url(#t)"><ellipse cx="151.34" cy="111.66" rx="12.46" ry="15.47" fill="url(#v)" style="mix-blend-mode:color-dodge"/></g><g mask="url(#w)"><path d="M156.21,111.66c0,3.34-2.18,6-4.87,6s-4.88-2.71-4.88-6,2.18-6.06,4.88-6.06S156.21,108.31,156.21,111.66Z" fill="url(#y)" style="mix-blend-mode:color-dodge"/></g><g mask="url(#z)"><ellipse cx="151.34" cy="111.66" rx="11.94" ry="14.83" fill="url(#ab)" style="mix-blend-mode:color-dodge"/></g><rect x="150.4" y="95.72" width="1.92" height="5.59" fill="#79f2ef"/><rect x="150.4" y="121.98" width="1.92" height="5.59" fill="#79f2ef"/><rect x="160.68" y="109.41" width="2.39" height="4.47" transform="translate(273.52 -50.23) rotate(90)" fill="#79f2ef"/><rect x="139.65" y="109.41" width="2.39" height="4.47" transform="translate(252.49 -29.2) rotate(90)" fill="#79f2ef"/><polygon points="157.89 105.18 156.53 103.49 159.7 99.54 161.05 101.23 157.89 105.18" fill="#79f2ef"/><polygon points="143.02 123.75 141.66 122.06 144.83 118.11 146.18 119.8 143.02 123.75" fill="#79f2ef"/><polygon points="156.53 119.8 157.89 118.11 161.05 122.06 159.7 123.75 156.53 119.8" fill="#79f2ef"/><polygon points="141.66 101.23 143.02 99.54 146.18 103.49 144.83 105.18 141.66 101.23" fill="#79f2ef"/><polygon points="159.35 108.7 158.6 106.5 162.72 104.31 163.47 106.51 159.35 108.7" fill="#79f2ef"/><polygon points="140 118.99 139.25 116.78 143.37 114.6 144.12 116.8 140 118.99" fill="#79f2ef"/><polygon points="153.72 121.63 155.49 120.69 157.24 125.83 155.47 126.77 153.72 121.63" fill="#79f2ef"/><polygon points="145.48 97.46 147.25 96.53 149 101.67 147.23 102.61 145.48 97.46" fill="#79f2ef"/><polygon points="158.63 116.73 159.37 114.53 163.5 116.68 162.76 118.89 158.63 116.73" fill="#79f2ef"/><polygon points="139.22 106.62 139.96 104.41 144.09 106.56 143.35 108.77 139.22 106.62" fill="#79f2ef"/><polygon points="147.28 120.72 149.06 121.65 147.33 126.8 145.56 125.88 147.28 120.72" fill="#79f2ef"/><polygon points="155.39 96.49 157.16 97.41 155.43 102.57 153.66 101.65 155.39 96.49" fill="#79f2ef"/><g opacity="0.19"><path d="M74.16,160.86C32.82,160.86.43,154.34.43,146s32.39-14.84,73.73-14.84,73.73,6.52,73.73,14.84S115.51,160.86,74.16,160.86Zm0-28.81c-39.49,0-72.86,6.4-72.86,14s33.37,14,72.86,14S147,153.59,147,146,113.66,132.05,74.16,132.05Z" fill="#8cceff"/><path d="M74.16,161.29C31.88,161.29,0,154.73,0,146s31.88-15.27,74.16-15.27,74.16,6.56,74.16,15.27S116.44,161.29,74.16,161.29Zm-2.65-29.66C32.32,131.9.87,138.25.87,146c0,7.94,32.88,14.41,73.29,14.41s73.3-6.47,73.3-14.41c0,7.94-32.88,14.41-73.3,14.41S.87,154,.87,146C.87,138.25,32.32,131.9,71.51,131.63Zm2.65.85c-38.58,0-72.43,6.33-72.43,13.54s33.85,13.54,72.43,13.54,72.43-6.33,72.43-13.54S112.75,132.48,74.16,132.48Zm.12-.86c40.32,0,73.11,6.45,73.18,14.38C147.39,138.07,114.6,131.63,74.28,131.62Z" fill="url(#ac)"/></g><circle cx="76.71" cy="90.02" r="52.75" transform="translate(-29.34 37.65) rotate(-23.28)" fill="#fff"/><circle cx="76.19" cy="90.02" r="29.35" transform="translate(-41.34 80.24) rotate(-45)" fill="#1983d1"/><circle cx="76.19" cy="90.02" r="14.35" transform="translate(-41.34 80.24) rotate(-45)" fill="#1f1633"/><path d="M115.46,69.89c1.66,6.19-3.35,12.91-11.18,15s-15.52-1.21-17.17-7.4,3.34-12.9,11.17-15S113.8,63.7,115.46,69.89Z" fill="#fff"/><path d="M127.55,44.67a1.11,1.11,0,0,1-.43-.09,1.14,1.14,0,0,1-.62-1.49l8.64-20.84a1.14,1.14,0,0,1,1.05-.7h26.42a1.14,1.14,0,1,1,0,2.28H137L128.61,44A1.15,1.15,0,0,1,127.55,44.67Z" fill="#fff"/><path d="M162.61,17.86H139.94a1.14,1.14,0,1,1,0-2.28h22.67a1.14,1.14,0,1,1,0,2.28Z" fill="#fff"/><path d="M162.61,12.76H139.94a1.15,1.15,0,0,1,0-2.29h22.67a1.15,1.15,0,1,1,0,2.29Z" fill="#fff"/><path d="M162.61,7.65H139.94a1.15,1.15,0,0,1,0-2.29h22.67a1.15,1.15,0,1,1,0,2.29Z" fill="#fff"/><path d="M162.61,2.29H139.94a1.15,1.15,0,0,1,0-2.29h22.67a1.15,1.15,0,1,1,0,2.29Z" fill="#79f2ef"/><circle cx="16.83" cy="143.58" r="2.44" fill="#fff"/><circle cx="134.16" cy="221.58" r="2" fill="#fff"/><path d="M72.16,241.25a3.67,3.67,0,1,1-3.66-3.67A3.67,3.67,0,0,1,72.16,241.25Z" fill="#fff"/><path d="M118,178.58a1.46,1.46,0,1,1-1.45-1.46A1.45,1.45,0,0,1,118,178.58Z" fill="#fff"/><path d="M36.16,38.92a2.67,2.67,0,1,1-2.66-2.67A2.66,2.66,0,0,1,36.16,38.92Z" fill="#fff"/><path d="M36.23,196.21h-19a1.16,1.16,0,0,1,0-2.28h19a1.16,1.16,0,0,1,0,2.28Z" fill="#79f2ef"/><path d="M36.23,191.1h-19a1.16,1.16,0,0,1,0-2.28h19a1.16,1.16,0,0,1,0,2.28Z" fill="#fff"/><path d="M36.23,185.74h-19a1.16,1.16,0,0,1,0-2.28h19a1.16,1.16,0,0,1,0,2.28Z" fill="#fff"/><path d="M39.07,180.21H17.63a1.32,1.32,0,0,1,0-2.63H38.16l10.62-28a1.31,1.31,0,1,1,2.45.93L40.3,179.36A1.33,1.33,0,0,1,39.07,180.21Z" fill="#fff"/><polygon points="70.05 202.8 61.94 188.75 70.05 174.7 86.28 174.7 94.39 188.75 86.28 202.8 70.05 202.8" fill="#fff" opacity="0.3"/><polygon points="83.36 219.53 76.56 207.75 83.36 195.97 96.96 195.97 103.76 207.75 96.96 219.53 83.36 219.53" fill="#fff" opacity="0.3"/><path d="M29.81,271.23H13L4.56,256.64,13,242.06H29.81l8.42,14.58Zm-15.44-2.41H28.42l7-12.18-7-12.17H14.37l-7,12.17Z" fill="#fff"/><g mask="url(#ad)"><path d="M137.87,27.55c-.64-4.55-27.12-8.2-59.71-8.2S19.09,23,18.46,27.55l-.29,265h120Z" fill="url(#af)" style="mix-blend-mode:lighten"/></g><path d="M93.5,238.34c6.91-.37,13.41-.92,19.33-1.64v-.93c-5.94.73-12.46,1.3-19.33,1.67Z" fill="#8cceff"/><path d="M93.06,238.79V237l.41,0c6.84-.37,13.34-.94,19.31-1.67l.48-.06v1.8l-.38,0c-5.94.72-12.45,1.27-19.36,1.64Zm.87-.94v0c6.57-.36,12.78-.88,18.47-1.56v-.07C106.66,237,100.46,237.49,93.93,237.85Z" fill="url(#ag)"/><path d="M71.13,238v.86l3,0q5.46,0,10.68-.15v-.88c-3.49.11-7.06.16-10.68.16Z" fill="#8cceff"/><path d="M74.16,239.27H70.69v-1.73h.44c4.49,0,9.11,0,13.7-.15h.44v1.74h-.42C81.31,239.22,77.72,239.27,74.16,239.27Zm-2.6-.88c4.24,0,8.58,0,12.85-.12h0c-4.31.12-8.64.16-12.85.13Z" fill="url(#ah)"/><path d="M61.6,238.11a3,3,0,0,1-.05.52l5.26.14v-.87c-1.75,0-3.49-.09-5.21-.15Z" fill="#8cceff"/><path d="M67.24,239.21H66.8c-1.78,0-3.53-.08-5.26-.14L61,239l.09-.5a2,2,0,0,0,.05-.43v-.81l.45,0c1.72.06,3.45.11,5.2.15h.42Zm-5.21-1c1.44,0,2.88.09,4.35.12h0q-2.19,0-4.35-.12Z" fill="url(#ai)"/><path d="M57.29,237.58q-2.94-.15-5.79-.34v.91c1.9.11,3.83.22,5.79.31v-.88Z" fill="#8cceff"/><path d="M57.72,238.89h-.45q-3-.13-5.79-.31l-.41,0v-1.77l.46,0c1.9.13,3.82.24,5.78.33l.41,0Zm-5.78-1.15c1.61.1,3.25.19,4.91.27v0c-1.66-.08-3.29-.18-4.91-.28Z" fill="url(#aj)"/><path d="M74.16,209.16C32.82,209.16.43,215.68.43,224c0,6.39,19.14,11.72,46.76,13.84v-.9C20.59,234.83,1.3,229.76,1.3,224c0-7.57,33.37-14,72.86-14S147,216.43,147,224c0,4.15-10,7.94-25.54,10.52v.94c16.22-2.7,26.4-6.8,26.4-11.46C147.89,215.68,115.51,209.16,74.16,209.16Z" fill="#8cceff"/><path d="M47.62,238.31l-.47,0C24.36,236.52,0,231.85,0,224c0-8.71,31.88-15.27,74.16-15.27s74.16,6.56,74.16,15.27c0,6.47-16.76,10.23-26.76,11.89l-.51.08v-1.81l.37-.06c15.76-2.63,25.17-6.4,25.17-10.1,0-7.21-33.84-13.54-72.43-13.54S1.73,216.79,1.73,224c0,5.24,18.71,10.39,45.49,12.5l.4,0ZM13.32,232c8,2.37,19.59,4.27,33.43,5.35v0C35.08,236.4,22.39,234.61,13.32,232Zm108.6,2.87V235a111.29,111.29,0,0,0,13.49-3A121.07,121.07,0,0,1,121.92,234.89ZM1.17,222.69A3.09,3.09,0,0,0,.87,224v0A3.09,3.09,0,0,1,1.17,222.69Z" fill="url(#ak)"/><path d="M74.16,226.47C32.82,226.47.43,220,.43,211.63s32.39-14.84,73.73-14.84,73.73,6.52,73.73,14.84S115.51,226.47,74.16,226.47Zm0-28.81c-39.49,0-72.86,6.4-72.86,14s33.37,14,72.86,14,72.87-6.39,72.87-14S113.66,197.66,74.16,197.66Z" fill="#8cceff"/><path d="M74.16,226.9C31.88,226.9,0,220.34,0,211.63s31.88-15.27,74.16-15.27,74.16,6.57,74.16,15.27S116.44,226.9,74.16,226.9Zm-73-16.58a3.09,3.09,0,0,0-.3,1.31c0,8,32.88,14.41,73.29,14.41s73.3-6.46,73.3-14.41c0,7.94-32.88,14.41-73.3,14.41S.87,219.57.87,211.63A3.09,3.09,0,0,1,1.17,210.32Zm73-12.23c-38.58,0-72.43,6.33-72.43,13.54s33.85,13.54,72.43,13.54,72.43-6.33,72.43-13.54S112.75,198.09,74.16,198.09Z" fill="url(#al)"/></g></svg>