<svg xmlns="http://www.w3.org/2000/svg" xmlns:xlink="http://www.w3.org/1999/xlink" width="295.24" height="346" viewBox="0 0 295.24 346"><defs><filter id="b" x="168.48" y="-8365" width="126.76" height="32766" filterUnits="userSpaceOnUse" color-interpolation-filters="sRGB"><feFlood flood-color="#fff" result="bg"/><feBlend in="SourceGraphic" in2="bg"/></filter><mask id="a" x="168.48" y="-8365" width="126.76" height="32766" maskUnits="userSpaceOnUse"><g filter="url(#b)"/></mask><linearGradient id="c" x1="76.28" y1="330.2" x2="293.4" y2="330.2" gradientUnits="userSpaceOnUse"><stop offset="0" stop-color="#1a1a1a"/><stop offset="0.12" stop-color="#464646"/><stop offset="0.29" stop-color="#7d7d7d"/><stop offset="0.46" stop-color="#acacac"/><stop offset="0.62" stop-color="#d0d0d0"/><stop offset="0.76" stop-color="#eaeaea"/><stop offset="0.9" stop-color="#fafafa"/><stop offset="1" stop-color="#fff"/></linearGradient><filter id="e" x="215.85" y="-8365" width="11.7" height="32766" filterUnits="userSpaceOnUse" color-interpolation-filters="sRGB"><feFlood flood-color="#fff" result="bg"/><feBlend in="SourceGraphic" in2="bg"/></filter><mask id="d" x="215.85" y="-8365" width="11.7" height="32766" maskUnits="userSpaceOnUse"><g filter="url(#e)"/></mask><radialGradient id="f" cx="221.7" cy="88.81" r="4.98" gradientTransform="translate(0 -4.48) scale(1 1.24)" gradientUnits="userSpaceOnUse"><stop offset="0" stop-color="#fff"/><stop offset="0.06" stop-color="#d9d9d9"/><stop offset="0.14" stop-color="#acacac"/><stop offset="0.23" stop-color="#858585"/><stop offset="0.32" stop-color="#646464"/><stop offset="0.42" stop-color="#494949"/><stop offset="0.52" stop-color="#343434"/><stop offset="0.64" stop-color="#252525"/><stop offset="0.78" stop-color="#1d1d1d"/><stop offset="1" stop-color="#1a1a1a"/></radialGradient><filter id="h" x="207.38" y="-8365" width="28.64" height="32766" filterUnits="userSpaceOnUse" color-interpolation-filters="sRGB"><feFlood flood-color="#fff" result="bg"/><feBlend in="SourceGraphic" in2="bg"/></filter><mask id="g" x="207.38" y="-8365" width="28.64" height="32766" maskUnits="userSpaceOnUse"><g filter="url(#h)"/></mask><radialGradient id="i" cx="221.7" cy="88.81" r="12.2" gradientTransform="translate(0 -4.48) scale(1 1.24)" gradientUnits="userSpaceOnUse"><stop offset="0" stop-color="#fff"/><stop offset="0.31" stop-color="#afafaf"/><stop offset="0.64" stop-color="#606060"/><stop offset="0.88" stop-color="#2d2d2d"/><stop offset="1" stop-color="#1a1a1a"/></radialGradient><filter id="k" x="25.57" y="-8365" width="143.88" height="32766" filterUnits="userSpaceOnUse" color-interpolation-filters="sRGB"><feFlood flood-color="#fff" result="bg"/><feBlend in="SourceGraphic" in2="bg"/></filter><mask id="j" x="25.57" y="-8365" width="143.88" height="32766" maskUnits="userSpaceOnUse"><g filter="url(#k)"/></mask><linearGradient id="l" x1="97.51" y1="-7.1" x2="97.51" y2="331.41" gradientUnits="userSpaceOnUse"><stop offset="0" stop-color="#1a1a1a"/><stop offset="0.14" stop-color="#1e1e1e"/><stop offset="0.27" stop-color="#292929"/><stop offset="0.4" stop-color="#3d3d3d"/><stop offset="0.53" stop-color="#585858"/><stop offset="0.66" stop-color="#7b7b7b"/><stop offset="0.79" stop-color="#a6a6a6"/><stop offset="0.91" stop-color="#d8d8d8"/><stop offset="1" stop-color="#fff"/></linearGradient><filter id="n" x="133.48" y="-8365" width="29.88" height="32766" filterUnits="userSpaceOnUse" color-interpolation-filters="sRGB"><feFlood flood-color="#fff" result="bg"/><feBlend in="SourceGraphic" in2="bg"/></filter><mask id="m" x="133.48" y="-8365" width="29.88" height="32766" maskUnits="userSpaceOnUse"><g filter="url(#n)"/></mask><radialGradient id="o" cx="148.42" cy="72.01" r="12.73" xlink:href="#f"/><filter id="q" x="142.57" y="-8365" width="11.7" height="32766" filterUnits="userSpaceOnUse" color-interpolation-filters="sRGB"><feFlood flood-color="#fff" result="bg"/><feBlend in="SourceGraphic" in2="bg"/></filter><mask id="p" x="142.57" y="-8365" width="11.7" height="32766" maskUnits="userSpaceOnUse"><g filter="url(#q)"/></mask><radialGradient id="r" cx="148.42" cy="72.01" r="4.98" xlink:href="#f"/><filter id="t" x="134.1" y="-8365" width="28.64" height="32766" filterUnits="userSpaceOnUse" color-interpolation-filters="sRGB"><feFlood flood-color="#fff" result="bg"/><feBlend in="SourceGraphic" in2="bg"/></filter><mask id="s" x="134.1" y="-8365" width="28.64" height="32766" maskUnits="userSpaceOnUse"><g filter="url(#t)"/></mask><radialGradient id="u" cx="148.42" cy="72.01" r="12.2" xlink:href="#i"/><filter id="w" x="206.75" y="-8365" width="29.88" height="32766" filterUnits="userSpaceOnUse" color-interpolation-filters="sRGB"><feFlood flood-color="#fff" result="bg"/><feBlend in="SourceGraphic" in2="bg"/></filter><mask id="v" x="206.75" y="-8365" width="29.88" height="32766" maskUnits="userSpaceOnUse"><g filter="url(#w)"/></mask><radialGradient id="x" cx="221.7" cy="88.81" r="12.73" xlink:href="#f"/><filter id="z" x="168.48" y="324.04" width="126.76" height="12.34" filterUnits="userSpaceOnUse" color-interpolation-filters="sRGB"><feFlood flood-color="#fff" result="bg"/><feBlend in="SourceGraphic" in2="bg"/></filter><mask id="y" x="168.48" y="324.04" width="126.76" height="12.34" maskUnits="userSpaceOnUse"><g mask="url(#a)" filter="url(#z)"><path d="M168.48,330.21c0,3.4,46.1,6.16,103,6.16q6.24,0,12.3,0c7.4-1.89,11.5-3.95,11.5-6.12s-4.1-4.24-11.5-6.13q-6.06,0-12.3,0C214.58,324,168.48,326.8,168.48,330.21Z" fill="url(#c)" style="mix-blend-mode:multiply"/></g></mask><linearGradient id="aa" x1="76.28" y1="330.2" x2="293.4" y2="330.2" gradientUnits="userSpaceOnUse"><stop offset="0" stop-color="#44c9f2"/><stop offset="0.12" stop-color="#41acd6"/><stop offset="0.32" stop-color="#3c7ea9"/><stop offset="0.52" stop-color="#385a86"/><stop offset="0.7" stop-color="#35406d"/><stop offset="0.87" stop-color="#34305e"/><stop offset="1" stop-color="#332b59"/></linearGradient><linearGradient id="ab" x1="216.52" y1="-5.51" x2="213.31" y2="79.53" xlink:href="#aa"/><filter id="ad" x="133.48" y="66.38" width="29.88" height="37.11" filterUnits="userSpaceOnUse" color-interpolation-filters="sRGB"><feFlood flood-color="#fff" result="bg"/><feBlend in="SourceGraphic" in2="bg"/></filter><mask id="ac" x="133.48" y="66.38" width="29.88" height="37.11" maskUnits="userSpaceOnUse"><g mask="url(#m)" filter="url(#ad)"><ellipse cx="148.42" cy="84.93" rx="14.94" ry="18.55" fill="url(#o)" style="mix-blend-mode:multiply"/></g></mask><radialGradient id="ae" cx="148.42" cy="72.01" r="12.73" gradientTransform="translate(0 -4.48) scale(1 1.24)" gradientUnits="userSpaceOnUse"><stop offset="0" stop-color="#fff"/><stop offset="0.13" stop-color="#fff"/><stop offset="1" stop-color="#fff"/></radialGradient><filter id="ag" x="142.57" y="77.67" width="11.7" height="14.53" filterUnits="userSpaceOnUse" color-interpolation-filters="sRGB"><feFlood flood-color="#fff" result="bg"/><feBlend in="SourceGraphic" in2="bg"/></filter><mask id="af" x="142.57" y="77.67" width="11.7" height="14.53" maskUnits="userSpaceOnUse"><g mask="url(#p)" filter="url(#ag)"><path d="M154.27,84.93c0,4-2.62,7.27-5.85,7.27s-5.85-3.26-5.85-7.27,2.62-7.26,5.85-7.26S154.27,80.92,154.27,84.93Z" fill="url(#r)" style="mix-blend-mode:multiply"/></g></mask><radialGradient id="ah" cx="148.42" cy="72.01" r="4.98" xlink:href="#ae"/><filter id="aj" x="134.1" y="67.15" width="28.64" height="35.55" filterUnits="userSpaceOnUse" color-interpolation-filters="sRGB"><feFlood flood-color="#fff" result="bg"/><feBlend in="SourceGraphic" in2="bg"/></filter><mask id="ai" x="134.1" y="67.15" width="28.64" height="35.55" maskUnits="userSpaceOnUse"><g mask="url(#s)" filter="url(#aj)"><ellipse cx="148.42" cy="84.93" rx="14.32" ry="17.78" fill="url(#u)" style="mix-blend-mode:multiply"/></g></mask><radialGradient id="ak" cx="148.42" cy="72.01" r="12.2" gradientTransform="translate(0 -4.48) scale(1 1.24)" gradientUnits="userSpaceOnUse"><stop offset="0" stop-color="#fff"/><stop offset="1" stop-color="#fff"/></radialGradient><filter id="am" x="206.75" y="87.24" width="29.88" height="37.11" filterUnits="userSpaceOnUse" color-interpolation-filters="sRGB"><feFlood flood-color="#fff" result="bg"/><feBlend in="SourceGraphic" in2="bg"/></filter><mask id="al" x="206.75" y="87.24" width="29.88" height="37.11" maskUnits="userSpaceOnUse"><g mask="url(#v)" filter="url(#am)"><ellipse cx="221.7" cy="105.79" rx="14.94" ry="18.55" fill="url(#x)" style="mix-blend-mode:multiply"/></g></mask><radialGradient id="an" cx="221.7" cy="88.81" r="12.73" xlink:href="#ae"/><filter id="ap" x="215.85" y="98.53" width="11.7" height="14.53" filterUnits="userSpaceOnUse" color-interpolation-filters="sRGB"><feFlood flood-color="#fff" result="bg"/><feBlend in="SourceGraphic" in2="bg"/></filter><mask id="ao" x="215.85" y="98.53" width="11.7" height="14.53" maskUnits="userSpaceOnUse"><g mask="url(#d)" filter="url(#ap)"><path d="M227.55,105.79c0,4-2.62,7.26-5.85,7.26s-5.85-3.25-5.85-7.26,2.62-7.26,5.85-7.26S227.55,101.78,227.55,105.79Z" fill="url(#f)" style="mix-blend-mode:multiply"/></g></mask><radialGradient id="aq" cx="221.7" cy="88.81" r="4.98" xlink:href="#ae"/><filter id="as" x="207.38" y="88.01" width="28.64" height="35.55" filterUnits="userSpaceOnUse" color-interpolation-filters="sRGB"><feFlood flood-color="#fff" result="bg"/><feBlend in="SourceGraphic" in2="bg"/></filter><mask id="ar" x="207.38" y="88.01" width="28.64" height="35.55" maskUnits="userSpaceOnUse"><g mask="url(#g)" filter="url(#as)"><ellipse cx="221.7" cy="105.79" rx="14.32" ry="17.78" fill="url(#i)" style="mix-blend-mode:multiply"/></g></mask><radialGradient id="at" cx="221.7" cy="88.81" r="12.2" xlink:href="#ak"/><filter id="av" x="25.57" y="0" width="143.88" height="327.53" filterUnits="userSpaceOnUse" color-interpolation-filters="sRGB"><feFlood flood-color="#fff" result="bg"/><feBlend in="SourceGraphic" in2="bg"/></filter><mask id="au" x="25.57" y="0" width="143.88" height="327.53" maskUnits="userSpaceOnUse"><g mask="url(#j)" filter="url(#av)"><path d="M169.1,9.83C168.33,4.38,136.59,0,97.51,0S26.68,4.38,25.91,9.83l-.34,317.7H169.44Z" fill="url(#l)" style="mix-blend-mode:multiply"/></g></mask><linearGradient id="aw" x1="97.51" y1="-7.1" x2="97.51" y2="331.41" gradientUnits="userSpaceOnUse"><stop offset="0" stop-color="#fff"/><stop offset="0.21" stop-color="#fbfdff"/><stop offset="0.41" stop-color="#f0f8ff"/><stop offset="0.61" stop-color="#dceffe"/><stop offset="0.8" stop-color="#c1e3fd"/><stop offset="0.99" stop-color="#9ed3fc"/><stop offset="1" stop-color="#9dd2fc"/></linearGradient></defs><g style="isolation:isolate"><ellipse cx="147.62" cy="330.21" rx="147.62" ry="15.79" fill="#9dd2fc"/><g mask="url(#y)"><path d="M168.48,330.21c0,3.4,46.1,6.16,103,6.16q6.24,0,12.3,0c7.4-1.89,11.5-3.95,11.5-6.12s-4.1-4.24-11.5-6.13q-6.06,0-12.3,0C214.58,324,168.48,326.8,168.48,330.21Z" fill="url(#aa)"/></g><path d="M215.27,198.9c-13.87-.32-21.76-1.94-24.33-2.56l-3.75,10.38-1,24.67c-.4.8-.4,70.6.4,72s4.21,5.81,4.21,5.81-5.21.4-4,2a44.14,44.14,0,0,0,4.42,4.41s-4.82.4-3.21,1.81,18.65,4.21,19.05,2.8-1.2-5.41-1.2-5.41,2-1.21,2-2.61-2.2-7.22-2.2-7.22,4-94.07,4.81-94.07,4.41.4,4.61,1.41,5.42,92.06,6.62,93.26,4.61,4.82,4.61,4.82-2.4,3.61-1.4,4.81a31.31,31.31,0,0,0,3.41,3.61c.6.4,6.22,2,9.83,1.4s6.62-4,6.62-4a42.11,42.11,0,0,0,.2-5.41,9,9,0,0,0-1.81-2.41,21.39,21.39,0,0,0,2.21-6.62c.52-3.3-3.62-84.55-4.74-106.36C239,196.12,230.62,199.26,215.27,198.9Z" fill="#1f1633"/><path d="M213.27,18.19s-7,3.2-10,12.83-2.41,34.7-.4,37.91,14.44,3.21,15.44,4.41S219.89,85,219.89,85l-3.81,1.61s2.2,9,8,10,15-11,15-11L235.33,84V70.73s11-7.62,15.24-26.27S236.73,4.35,213.27,18.19Z" fill="#fcb072"/><path d="M249.05,65.54a11.75,11.75,0,0,1-4,.74c-8.24-.4-1-11.83,1.71-14.48A12.08,12.08,0,0,1,249.37,50a8.72,8.72,0,0,1,2.57-1.1,3.05,3.05,0,0,1,2.64.58,4.38,4.38,0,0,1,1.08,2.27,23.87,23.87,0,0,1,.91,5.35A7.92,7.92,0,0,1,255,62.24C253.55,64,251.24,64.83,249.05,65.54Z" fill="#fcb072"/><path d="M246.72,66.15a8.05,8.05,0,0,1-1.62.13c-2-.1-3.07-.85-3.53-2a31.56,31.56,0,0,1-6.24,6.41v12c1.61-.4,3-5.42,3-5.42l4.81,2.41c1.61.8.6-6,.6-6s2.81,3,4.62,3.41-1.81-5.61-2.21-6.82C246,69.73,246.32,67.86,246.72,66.15Z" fill="#fff"/><path d="M251.38,14a24.08,24.08,0,0,0-7.22-3.81s-15.25-6.42-22.87-4-8.82,4.41-8.82,4.41-7.83,5.22-8.23,7.63a13.61,13.61,0,0,0,0,4.41s-3.41,1.4-3,2.2a20.42,20.42,0,0,0,3,3s4.21-6.22,5.62-7.22,3.41-2.4,3.41-2.4l1.2,2.2,1.41-2s1.2,2.2,1.4,2.4a14,14,0,0,1,5-3.41c2.61-.8-1.6,2.81-1.6,2.81s7.22-1.4,8.22-1.4-4.21.6-2.4,1.2,10,1,11.83,3,.4,14.64,1.8,16.65,5.42,6.61,5.42,6.61l-1.11,8.57a20.76,20.76,0,0,1,2.36-3A12.08,12.08,0,0,1,249.37,50a8.72,8.72,0,0,1,2.57-1.1,3.66,3.66,0,0,1,1.4,0c1-3.39,3.2-10.94,3.65-16.68C257.59,24.6,254.59,16.58,251.38,14Z" fill="#fff"/><path d="M211.66,59.1s-4.41-3.21-9.22-1.2-5.22,12.23-4.82,14.44,3.61,5.41,4.22,6.62,0,3.81.8,3.61,1.2-4,1.2-4,3.41,5.41,4.61,6.21,1.21-1.4.81-2,7.82,4.61,10.63,5.61,1.2-3.61,1.2-3.61,5.21,3.61,6.22,4,.8-2.61.8-2.61a6.4,6.4,0,0,0,3.61-.4c1.6-.81,4.41-5.22,4.41-5.22s-2,5.42-.8,5,5.42-5.62,6-7.83,2.4-9.82,1.8-11.63S224.3,56.9,218.68,56.9,211.66,59.1,211.66,59.1Z" fill="#fff"/><path d="M216.08,86.58l-10.43,4s-8.43,39.71-11.24,64.18S190,196.09,190,196.09s8,2.41,25.27,2.81S241,195.29,241,195.29l12-105.1-13.84-4.61-13.84,5Z" fill="#4b4f87"/><path d="M216.08,86.58s-6,23.27-11.64,71.4-6.82,94.67-6.82,94.67-6.1.32-9.22-.4c-5.22-1.2-6.82-4-6.82-4s5.21-65.79,8.82-91.86S202,91.79,202,91.79Z" fill="#b8f7fe"/><path d="M237.34,84.57s-8.83,37.71-11.24,75.82c-2.36,37.41-3.2,93.46-3.2,93.46s9.22,1.21,16.84-.4A69.89,69.89,0,0,0,253.38,249S260.2,95.4,258.6,93,237.34,84.57,237.34,84.57Z" fill="#b8f7fe"/><path d="M183.18,160.79c1.61-1,3.41-5.82,3.41-5.82l5-6.55C195.51,123.14,202,91.79,202,91.79s-3.11.51-4.42,4.92c-.84,2.86-15,33.79-15,33.79s-3.61-2.6-4.61-2.2-3.21,3.81-3.21,3.81-4.82-3.61-6.42-2.41-9.63,13.84-9.43,16.65,8,13.64,9.63,13.84,6.22-2,6.22-2S181.58,161.79,183.18,160.79Z" fill="#b8f7fe"/><path d="M215.07,212.34c-.2-1-3.81-1.41-4.61-1.41-.33,0-1.23,16.4-2.16,35.49,2.83.07,5.82.17,8.93.29C216.08,228.37,215.16,212.75,215.07,212.34Z" fill="#9dd2fc"/><path d="M194.21,319.23l-.2,2-8.62,6.21s-16,2.21-17.45,2.61,40.31,1.61,40.31,1c0-.42-2.62-6.81-4.15-10.48A79.46,79.46,0,0,1,194.21,319.23Z" fill="#1f1633"/><path d="M240.75,322.05l-.77-2.38a7.85,7.85,0,0,1-1.84.57,20.33,20.33,0,0,1-7.12-.55l.1,3s-1.41,8.42-1,9.23,9,3.61,11.63,2.6,5.82-2.8,5.82-3.61S240.75,322.05,240.75,322.05Z" fill="#1f1633"/><path d="M171,135.79s-15-20.33-15-20.86-.4-8.83-.4-8.83-8.16-5.35-9.23-4.81-6,4.54-5.48,5.21,6.42-.93,6.42-.93-1.61,5.88-.67,8a24,24,0,0,0,3.48,5l-1.88,5.08s12,22.33,14.71,23.93S171.28,146.48,171,135.79Z" fill="#fcb072"/><path d="M151.93,103.79c-.26-6.48-1-22.37-2.18-22.16-1.47.27-2.67,4.41-2.54,7.62.1,2.3.47,8.85.67,12.38A37.74,37.74,0,0,1,151.93,103.79Z" fill="#fcb072"/><path d="M146.68,113.59c-.94-2.14.67-8,.67-8s-5.89,1.6-6.42.93,4.16-4.47,5.39-5.16a5.51,5.51,0,0,0-1.65-1.52c-1.07-.27-7.75,6.15-7.89,7.22s-1.47,8-.53,8.69a19.2,19.2,0,0,0,4,1.47s1.47,4.14,2.27,4.81,5.75,1.61,5.75,1.61l1.88-5.08A24,24,0,0,1,146.68,113.59Z" fill="#fcb072"/><path d="M235.33,84s-3.21,14.44-4.61,25.47-2,21.26-2,21.26l21.66-42.11Z" fill="#9dd2fc"/><path d="M219.89,85s-3.61,12.24-7,25.08-4.62,20-4.62,20-1.8-26.07-1.8-31.89V90Z" fill="#9dd2fc"/><path d="M215,68.22a.56.56,0,0,1-.31-.09,9.19,9.19,0,0,1-2.81-2.6,6.66,6.66,0,0,1-6.8,2.29.57.57,0,0,1-.43-.43.59.59,0,0,1,.18-.59l1-.94a18,18,0,0,1-6.47.2.59.59,0,0,1-.5-.68.6.6,0,0,1,.68-.51,16.81,16.81,0,0,0,8.26-.83.63.63,0,0,1,.72.24.62.62,0,0,1-.09.76l-1.87,1.78h.07a5.53,5.53,0,0,0,4.73-2.68.61.61,0,0,1,.52-.31h0a.61.61,0,0,1,.52.31,8.24,8.24,0,0,0,1.85,2.22,6.3,6.3,0,0,0-.55-1.58.6.6,0,0,1,.14-.71.59.59,0,0,1,.72-.07,16.09,16.09,0,0,0,6.56,2.29,8.73,8.73,0,0,0-1-.69.6.6,0,0,1,.61-1c2.28,1.32,5.3.45,7.94-.48a.61.61,0,0,1,.77.37.61.61,0,0,1-.37.77,16.66,16.66,0,0,1-6.1,1.21l.16.19a.59.59,0,0,1,.07.65.6.6,0,0,1-.55.33,17.26,17.26,0,0,1-7.3-1.78,7.69,7.69,0,0,1,.22,1.79.61.61,0,0,1-.31.53A.6.6,0,0,1,215,68.22Z" fill="#e0bb9d"/><path d="M256,53c-3,1.41-6,2.82-9.05,4.2a.59.59,0,0,0-.35.46.63.63,0,0,0,.21.55,2.65,2.65,0,0,1,1,1.29c.15.66-.41,1.37-1,1.81a5.82,5.82,0,0,1-5.5.79,5.94,5.94,0,0,0,0,1.26,7.06,7.06,0,0,0,2,.31,6.85,6.85,0,0,0,4.22-1.41,3.13,3.13,0,0,0,1.41-3,2.84,2.84,0,0,0-.76-1.33c2.67-1.22,5.33-2.46,8-3.7C256.14,53.78,256.05,53.38,256,53Z" fill="#00010d"/><path d="M193.75,30.11c-2.38,1.14-3.75,7.24-3.35,14.62.36,6.62,1.21,9.27,2.94,10.69s41.32,2.09,43.46.41,3.61-18.86.54-23.39S198.29,27.9,193.75,30.11Z" fill="url(#ab)"/><path d="M247,37.91c-.4-2.41-9.76-7-9.76-7S230,28.22,215,28c-9.76-.13-18.91,1.07-20.54,1.84,6.7-1.94,39.92-1.76,42.87,2.59,3.07,4.53,1.6,21.7-.54,23.39s-41.72,1-43.46-.41c0,0-.13.81,4.15,1.34s36.5.8,38.51.4,6.55.27,7.75-.67S247.36,40.31,247,37.91Z" fill="#1f1633"/><path d="M247,39.39a92.57,92.57,0,0,1-2.51,15.4,20.75,20.75,0,0,1,2.33-3A12.08,12.08,0,0,1,249.37,50a8.72,8.72,0,0,1,2.57-1.1,3.11,3.11,0,0,1,2.46.46,26.84,26.84,0,0,0,1.66-4.92C256.06,43.64,249.9,40.72,247,39.39Z" fill="#1f1633"/><path d="M253,90.19s8.56,2.54,10.7,7.35S272,148,273,152.77s-8.16,17.78-12.44,18.85-14.44-2.14-16-6.42-2.81-13.64-1.21-16.31,8-6.42,8-6.42S246,103.16,253,90.19Z" fill="#b8f7fe"/><path d="M260.6,151.16,245,129.21l-6.59-16.83s-5.06-10.12-6.35-9.06c-1.1.89,3.53,10.24,3.53,10.24s-7.12-12.06-8.12-12c-2.24.11-5.77.94-5.89,2.47-.15,1.93,5.65,11.77,5.65,11.77s-8.09-7.55-9.06-6.36,5.87,6.5,8.24,11.06c1.15,2.22-2.36.47-2.36.47s-4.94-2.11-4.47-.7,9.89,9.88,11.3,10.35S237,133,237,133s7.51,23.85,10.33,26.21S259.4,163.6,260.6,151.16Z" fill="#fcb072"/><path d="M193.75,31.62c-2.23,1.76-1.6,14.18-.53,14.71s4.27-7.22,4.27-7.22S222.37,36.7,225,33.5,197.49,28.68,193.75,31.62Z" fill="#fff" opacity="0.2"/><path d="M197.63,33.5c0,1.32-.68,2.4-1.51,2.4s-1.5-1.08-1.5-2.4.67-2.41,1.5-2.41S197.63,32.17,197.63,33.5Z" fill="#fff"/><path d="M201.64,33.5c0,1.32-.67,2.4-1.5,2.4s-1.51-1.08-1.51-2.4.67-2.41,1.51-2.41S201.64,32.17,201.64,33.5Z" fill="#fff"/><ellipse cx="148.45" cy="84.78" rx="7.86" ry="9.81" fill="#44c9f2"/><path d="M153.33,84.78c0,3.36-2.19,6.09-4.88,6.09s-4.88-2.73-4.88-6.09,2.19-6.09,4.88-6.09S153.33,81.41,153.33,84.78Z" fill="#79f2ef"/><g mask="url(#ac)"><ellipse cx="148.42" cy="84.93" rx="14.94" ry="18.55" fill="url(#ae)" style="mix-blend-mode:color-dodge"/></g><g mask="url(#af)"><path d="M154.27,84.93c0,4-2.62,7.27-5.85,7.27s-5.85-3.26-5.85-7.27,2.62-7.26,5.85-7.26S154.27,80.92,154.27,84.93Z" fill="url(#ah)" style="mix-blend-mode:color-dodge"/></g><g mask="url(#ai)"><ellipse cx="148.42" cy="84.93" rx="14.32" ry="17.78" fill="url(#ak)" style="mix-blend-mode:color-dodge"/></g><rect x="147.3" y="65.83" width="2.3" height="6.7" fill="#79f2ef"/><rect x="147.3" y="97.32" width="2.3" height="6.7" fill="#79f2ef"/><rect x="159.62" y="82.24" width="2.87" height="5.37" transform="translate(245.98 -76.14) rotate(90)" fill="#79f2ef"/><rect x="134.41" y="82.24" width="2.87" height="5.37" transform="translate(220.76 -50.92) rotate(90)" fill="#79f2ef"/><polygon points="156.28 77.17 154.66 75.14 158.45 70.4 160.08 72.44 156.28 77.17" fill="#79f2ef"/><polygon points="138.45 99.44 136.83 97.41 140.62 92.67 142.25 94.7 138.45 99.44" fill="#79f2ef"/><polygon points="154.66 94.7 156.28 92.67 160.08 97.41 158.45 99.44 154.66 94.7" fill="#79f2ef"/><polygon points="136.83 72.44 138.45 70.4 142.25 75.14 140.62 77.17 136.83 72.44" fill="#79f2ef"/><polygon points="158.03 81.39 157.13 78.74 162.07 76.12 162.97 78.76 158.03 81.39" fill="#79f2ef"/><polygon points="134.83 93.73 133.93 91.08 138.87 88.46 139.77 91.1 134.83 93.73" fill="#79f2ef"/><polygon points="151.28 96.89 153.4 95.76 155.5 101.93 153.38 103.05 151.28 96.89" fill="#79f2ef"/><polygon points="141.4 67.92 143.52 66.79 145.62 72.95 143.5 74.08 141.4 67.92" fill="#79f2ef"/><polygon points="157.17 91.02 158.05 88.37 163 90.95 162.12 93.6 157.17 91.02" fill="#79f2ef"/><polygon points="133.9 78.89 134.78 76.24 139.73 78.82 138.85 81.47 133.9 78.89" fill="#79f2ef"/><polygon points="143.57 95.81 145.69 96.91 143.62 103.1 141.5 101.99 143.57 95.81" fill="#79f2ef"/><polygon points="153.28 66.75 155.4 67.85 153.34 74.04 151.21 72.93 153.28 66.75" fill="#79f2ef"/><ellipse cx="221.73" cy="105.64" rx="7.86" ry="9.81" fill="#44c9f2"/><path d="M226.6,105.64c0,3.36-2.18,6.09-4.87,6.09s-4.88-2.73-4.88-6.09,2.18-6.09,4.88-6.09S226.6,102.27,226.6,105.64Z" fill="#79f2ef"/><g mask="url(#al)"><ellipse cx="221.7" cy="105.79" rx="14.94" ry="18.55" fill="url(#an)" style="mix-blend-mode:color-dodge"/></g><g mask="url(#ao)"><path d="M227.55,105.79c0,4-2.62,7.26-5.85,7.26s-5.85-3.25-5.85-7.26,2.62-7.26,5.85-7.26S227.55,101.78,227.55,105.79Z" fill="url(#aq)" style="mix-blend-mode:color-dodge"/></g><g mask="url(#ar)"><ellipse cx="221.7" cy="105.79" rx="14.32" ry="17.78" fill="url(#at)" style="mix-blend-mode:color-dodge"/></g><rect x="220.58" y="86.69" width="2.3" height="6.7" fill="#79f2ef"/><rect x="220.58" y="118.18" width="2.3" height="6.7" fill="#79f2ef"/><rect x="232.9" y="103.1" width="2.87" height="5.37" transform="translate(340.12 -128.55) rotate(90)" fill="#79f2ef"/><rect x="207.68" y="103.1" width="2.87" height="5.37" transform="translate(314.9 -103.34) rotate(90)" fill="#79f2ef"/><polygon points="229.56 98.03 227.93 96 231.72 91.26 233.35 93.29 229.56 98.03" fill="#79f2ef"/><polygon points="211.73 120.3 210.1 118.27 213.89 113.53 215.52 115.56 211.73 120.3" fill="#79f2ef"/><polygon points="227.93 115.56 229.56 113.53 233.35 118.27 231.72 120.3 227.93 115.56" fill="#79f2ef"/><polygon points="210.1 93.29 211.73 91.26 215.52 96 213.89 98.03 210.1 93.29" fill="#79f2ef"/><polygon points="231.31 102.25 230.41 99.6 235.34 96.98 236.24 99.62 231.31 102.25" fill="#79f2ef"/><polygon points="208.11 114.58 207.21 111.94 212.14 109.32 213.04 111.96 208.11 114.58" fill="#79f2ef"/><polygon points="224.56 117.75 226.67 116.62 228.78 122.79 226.66 123.91 224.56 117.75" fill="#79f2ef"/><polygon points="214.68 88.78 216.79 87.65 218.89 93.81 216.78 94.94 214.68 88.78" fill="#79f2ef"/><polygon points="230.44 111.88 231.33 109.23 236.28 111.81 235.39 114.46 230.44 111.88" fill="#79f2ef"/><polygon points="207.17 99.75 208.06 97.1 213.01 99.68 212.12 102.33 207.17 99.75" fill="#79f2ef"/><polygon points="216.84 116.67 218.96 117.77 216.9 123.96 214.77 122.85 216.84 116.67" fill="#79f2ef"/><polygon points="226.56 87.61 228.68 88.71 226.61 94.9 224.49 93.79 226.56 87.61" fill="#79f2ef"/><g mask="url(#au)"><path d="M169.1,9.83C168.33,4.38,136.59,0,97.51,0S26.68,4.38,25.91,9.83l-.34,317.7H169.44Z" fill="url(#aw)"/></g><path d="M91,39.17s-3.68,1.08-3.24,2.16a9.43,9.43,0,0,1,.43,2.81s-1.73.43-.87,1.08S98.57,50.84,99.43,50a15.61,15.61,0,0,0,1.95-3s4.32.22,5.19,1.08,2.16,1.08,1.94-.43-1.29-3.24-1.08-3.89,1.52-2.17-.65-2.38S101,43.06,101,43.06,95.76,39.38,94.68,39,91,39.17,91,39.17Z" fill="#fff"/><path d="M87.54,58c-2.05.68-1.08,4.11-1.08,4.11s-3.24,2.59-2.16,3.67,11.67,1.3,14,1.08a19.53,19.53,0,0,0,5-1.3l2.6.65s1.08,3.68,2.38,2.17,0-5.19,0-5.19a2.54,2.54,0,0,0,.65-2.38c-.44-1.3-3-1.52-3.25-.65s-2.16,1.73-2.16,1.73l-2.38-.43a2,2,0,0,0-1.29-2.38C98.14,58.41,88.84,57.54,87.54,58Z" fill="#fff"/><path d="M83.22,79.81c-.87,1.52-.87,3,0,3.68S84.3,86.3,84.3,86.3s-2,1.51-1.08,2.6,11,2.16,13.83,1.73a24.79,24.79,0,0,0,5.63-1.73s2.37,1.29,3,.86a10.79,10.79,0,0,0,1.73-2,5.19,5.19,0,0,0,4.33,0c2.16-1.08,2.38-1.73,2.38-2.59s-2.17-4.32-3.25-3.89-3.24,4.11-4.54,4.32a18.71,18.71,0,0,1-4.11-.21,1.63,1.63,0,0,0,0-2.6c-1.51-1.3-3.46-.21-4.75-1.3s-7.35-3-10.17-3A6,6,0,0,0,83.22,79.81Z" fill="#fff"/><path d="M82.57,101.44a4.44,4.44,0,0,0-1.3,4.54c.43.86-.86,4.1-.43,5.19s10.81,5,15.13,4.54,6.27-2.17,6.27-2.17,3.46,1.3,4.76.22,3.24-4.54,3.24-4.54,3.46,3,5.41,2,3.89-2.6,1.94-3.68-3.67-2.38-3.24-3.46,1.52-2.59-.86-3-5.62.65-5.62,2.38-3.68,5.19-4.33,5.19-1.3-.86-1.3-.86,1.3-4.11-.21-4.54S84.08,100.35,82.57,101.44Z" fill="#fff"/><path d="M83.65,130.62s-.87,2.6.22,3.46,4.32,3,4.32,3-1.3,1.73-.22,2.38,14.06,1.3,14.92.22.87-3.46.87-3.46,2.38.21,3-.87,2.17-3.24,2.17-3.24,4.54,1.08,5.83.21a1.8,1.8,0,0,0,0-3c-.86-.43-.64-3.46-3.67-3.46s-5.62,2.16-5.84,2.81-1.73,4.11-2.38,3.46-.65-4.33-2.81-4.54S86,128,83.65,130.62Z" fill="#fff"/><path d="M82.78,116.35s-2.37,2.6-1.51,3.46a27.5,27.5,0,0,0,3.24,2.38s0,2,.87,2.6,7.35,1.51,8.43.86A28.91,28.91,0,0,0,97.49,122l-.65-2.6a.81.81,0,0,0-.65-1.3C94.89,117.87,83.87,115.71,82.78,116.35Z" fill="#fff"/><path d="M86.46,92.35s-2.81,2-1.95,2.38,1.3,2.17,1.3,2.17-1.08,1.29-.43,1.94,7.13,1.51,9.08,1.51,4.54-.43,4.76-1.29a9.07,9.07,0,0,0-.44-3s1.3-.86.44-1.73S87.54,92.14,86.46,92.35Z" fill="#fff"/><path d="M87.32,68.79S85,70.52,85.38,71.17a18.66,18.66,0,0,1,1.08,2.16s-.86,1.08-.22,1.94,10,3.46,11.9,2.17a4.2,4.2,0,0,0,1.94-3.25s.87-2.16.22-2.38S89.27,68.36,87.32,68.79Z" fill="#fff"/><path d="M100.47,215.39s-1.4,1.89-1,2.51,1,2.07,1,2.07a2.39,2.39,0,0,0,.07,1.95c.53.81,7,2.7,8.19,1.27a5,5,0,0,0,.95-3.37s.34-2.21-.12-2.38S101.73,214.82,100.47,215.39Z" fill="#fff"/><path d="M89.49,49.11s-1.3,2-1.08,3,.64,3.24.64,3.24,6.92,1.73,7.79.87,2.16-2.81,1.51-3.89S90.78,48.9,89.49,49.11Z" fill="#fff"/><path d="M95,246s-3.11.92-2.74,1.83a8.1,8.1,0,0,1,.36,2.38s-1.46.37-.73.92,9.52,4.76,10.25,4a13.64,13.64,0,0,0,1.65-2.57s3.66.19,4.39.92,1.83.91,1.65-.37-1.1-2.74-.92-3.29,1.29-1.83-.55-2-4.94,1.47-4.94,1.47-4.39-3.11-5.31-3.48S95,246,95,246Z" fill="#fff"/><path d="M98.7,225.6c-1.83.61-1,3.66-1,3.66s-3,2.38-1.92,3.28c4.06,3.6,10.41,1.16,12.53,1a18.16,18.16,0,0,0,4.44-1.16l2.31.58s1,3.28,2.12,1.93,0-4.63,0-4.63a2.25,2.25,0,0,0,.58-2.12c-.39-1.16-2.7-1.35-2.89-.58s-1.93,1.54-1.93,1.54l-2.12-.38a1.82,1.82,0,0,0-1.16-2.13C108.15,226,99.86,225.21,98.7,225.6Z" fill="#fff"/><path d="M98.21,204.22c-.68,1.19-.68,2.38,0,2.89s.86,2.22.86,2.22-1.54,1.19-.86,2,8.69,1.7,10.9,1.36a19.36,19.36,0,0,0,4.43-1.36s1.87,1,2.38.68a8.6,8.6,0,0,0,1.36-1.53,4.12,4.12,0,0,0,3.41,0c1.7-.85,1.87-1.36,1.87-2s-1.7-3.41-2.55-3.07-2.56,3.24-3.58,3.41a14.8,14.8,0,0,1-3.23-.17,1.29,1.29,0,0,0,0-2.05c-1.2-1-2.73-.17-3.75-1s-5.79-2.38-8-2.38A4.73,4.73,0,0,0,98.21,204.22Z" fill="#fff"/><path d="M90.31,155.78a3.49,3.49,0,0,0-.53,3.69c.43.63-.24,3.31.21,4.11s9,2.74,12.32,1.94a9.17,9.17,0,0,0,4.67-2.36s2.85.65,3.75-.33a18.39,18.39,0,0,0,2-3.9s3,2,4.43.95,2.77-2.44,1.14-3.08-3.13-1.47-2.91-2.36.91-2.19-1-2.28-4.32,1.1-4.14,2.46-2.32,4.45-2.83,4.52-1.11-.54-1.11-.54.58-3.35-.65-3.53S91.38,154.78,90.31,155.78Z" fill="#fff"/><path d="M92.53,181.9s-.72,2.18.19,2.9,3.63,2.55,3.63,2.55-1.09,1.45-.18,2,11.8,1.09,12.53.19a5.9,5.9,0,0,0,.72-2.91s2,.18,2.55-.73,1.81-2.72,1.81-2.72,3.82.91,4.91.18a1.52,1.52,0,0,0,0-2.54c-.73-.37-.55-2.91-3.09-2.91s-4.72,1.82-4.9,2.36-1.46,3.45-2,2.91-.55-3.63-2.36-3.82S94.53,179.72,92.53,181.9Z" fill="#fff"/><path d="M97.32,192.63s-1.94,2.12-1.24,2.82a22.25,22.25,0,0,0,2.65,1.94s0,1.59.7,2.12,6,1.23,6.88.7a23,23,0,0,0,3-3l-.53-2.12a.66.66,0,0,0-.53-1.06C107.19,193.87,98.2,192.1,97.32,192.63Z" fill="#fff"/><path d="M90.57,143.38s-2.81,2-1.95,2.38,1.3,2.16,1.3,2.16-1.08,1.3-.43,2,7.13,1.51,9.08,1.51,4.54-.43,4.75-1.3a8.85,8.85,0,0,0-.43-3s1.3-.87.43-1.73S91.65,143.17,90.57,143.38Z" fill="#fff"/><path d="M92.64,169.79s-1.91,2.23-1.34,2.76a19.35,19.35,0,0,1,1.54,1.86s-.59,1.25.24,1.94,10.47,1.09,12.07-.62a4.17,4.17,0,0,0,1.15-3.6s.35-2.3-.33-2.36S94.44,168.93,92.64,169.79Z" fill="#fff"/><path d="M96.55,236.5s-1.3,1.94-1.08,3,.65,3.25.65,3.25,6.92,1.73,7.78.86,2.16-2.81,1.51-3.89S97.85,236.28,96.55,236.5Z" fill="#fff"/><path d="M91.65,254.26s-2.6,3.65-2.6,5.11,4.33,4,4.33,4,6.05-2.55,5.62-4.74S92.08,253.16,91.65,254.26Z" fill="#fff"/><path d="M87.32,263.38S84.3,267.7,86,269a26.43,26.43,0,0,0,5.62,2.6l1.73-3s3.46,3.46,3,1.3S87.76,263,87.32,263.38Z" fill="#fff"/><path d="M84.73,272c-2,.68-1.73,3.89.43,5.19s5.19-.87,5.62-2.16S86,271.6,84.73,272Z" fill="#fff"/></g></svg>